<?xml version="1.0" standalone="no"?>
<!DOCTYPE svg PUBLIC "-//W3C//DTD SVG 20010904//EN"
 "http://www.w3.org/TR/2001/REC-SVG-20010904/DTD/svg10.dtd">
<svg version="1.0" xmlns="http://www.w3.org/2000/svg"
 width="1753.000000pt" height="1236.000000pt" viewBox="0 0 1753.000000 1236.000000"
 preserveAspectRatio="xMidYMid meet">

<g transform="translate(0.000000,1236.000000) scale(0.100000,-0.100000)"
fill="#000000" stroke="none">
<path d="M0 6185 l0 -6175 8765 0 8765 0 0 6175 0 6175 -8765 0 -8765 0 0
-6175z m14667 5895 c7 0 30 -22 51 -49 29 -37 44 -69 57 -124 17 -74 17 -75
-5 -142 -59 -178 -208 -227 -337 -112 -29 26 -62 114 -69 186 -6 51 -3 63 29
126 41 82 68 109 122 124 61 17 88 17 115 4 14 -7 31 -13 37 -13z m-624 -60
c50 -58 44 -150 -12 -204 -23 -22 -36 -27 -67 -24 l-39 3 -5 -50 c-4 -44 -8
-50 -30 -53 -14 -2 -34 -15 -46 -30 -21 -26 -21 -26 -33 -5 -6 12 -26 26 -45
33 -39 12 -51 33 -36 60 6 10 10 42 10 71 0 38 7 64 25 95 26 45 52 60 85 49
11 -4 20 -2 20 4 0 6 14 26 31 46 27 30 37 35 74 35 36 0 48 -5 68 -30z m995
-111 c30 -43 42 -43 58 1 13 36 18 25 14 -33 -1 -15 4 -35 11 -43 10 -12 9
-18 -3 -31 -22 -21 -51 -9 -65 28 -13 34 -28 31 -46 -9 -10 -25 -11 -24 -17
28 -10 104 5 123 48 59z m-13167 -6 c17 -10 33 -32 40 -53 6 -19 15 -39 19
-43 14 -15 49 12 52 39 2 15 12 32 23 38 10 6 25 17 33 24 21 19 46 14 75 -16
32 -33 33 -38 11 -46 -10 -4 -25 1 -36 10 -15 15 -22 15 -42 5 -26 -14 -60
-87 -45 -97 5 -3 9 -14 9 -24 0 -36 66 -54 91 -24 11 14 10 19 -11 36 -24 19
-24 20 -5 34 24 18 34 15 58 -18 24 -32 16 -76 -20 -102 -48 -35 -112 -17
-140 41 -8 19 -24 38 -34 44 -16 8 -21 5 -29 -16 -6 -15 -10 -32 -10 -39 0
-13 -53 -56 -68 -56 -19 0 -62 28 -82 53 -30 38 -29 150 1 175 12 9 29 25 38
35 19 21 35 22 72 0z m458 -8 c37 -32 67 -115 52 -144 -6 -11 -11 -29 -11 -40
0 -13 -15 -30 -38 -46 l-38 -25 -41 20 c-46 22 -64 57 -62 124 2 62 11 83 48
111 43 31 52 31 90 0z m13316 -45 c1 -33 -1 -63 -6 -66 -5 -3 -9 27 -9 67 0
86 12 85 15 -1z m-125 20 c5 0 10 -5 10 -11 0 -6 -9 -9 -19 -6 -14 3 -23 -3
-31 -24 -7 -16 -16 -29 -20 -29 -24 0 -40 15 -40 37 0 18 9 28 35 39 19 8 35
20 36 27 0 6 4 2 9 -10 5 -13 14 -23 20 -23z m360 -50 c-16 -29 -44 -21 -48
13 -3 21 2 29 22 39 14 6 27 16 28 22 0 6 3 -3 5 -21 2 -18 -1 -42 -7 -53z
m262 26 c-5 -18 -6 -18 -18 -1 -10 13 -11 23 -2 39 11 20 11 20 18 1 4 -11 5
-28 2 -39z m-14522 -34 c0 -82 10 -108 45 -114 13 -2 21 -12 23 -31 3 -25 1
-27 -37 -27 -30 0 -43 5 -51 19 -11 21 -14 214 -3 224 17 18 23 1 23 -71z
m5478 62 c17 -12 22 -25 22 -60 0 -38 -4 -46 -25 -56 -14 -6 -28 -8 -32 -4
-12 12 -21 111 -11 124 13 16 19 15 46 -4z m8145 -3 c40 -21 37 -57 -8 -78
-28 -13 -37 -14 -50 -3 -8 7 -15 16 -15 20 0 17 31 81 38 78 4 -2 19 -10 35
-17z m1325 -7 c3 -27 -41 -79 -61 -71 -9 3 -23 20 -32 37 -22 42 -7 59 48 56
33 -2 43 -6 45 -22z m-9373 -43 c-9 -50 -22 -60 -35 -27 -21 57 -5 99 28 73 9
-7 11 -22 7 -46z m61 4 c10 -54 9 -55 -13 -55 -21 0 -23 5 -23 48 0 46 5 62
20 62 3 0 10 -25 16 -55z m97 49 c9 -10 -4 -34 -19 -34 -9 0 -14 -12 -14 -35
0 -25 -4 -35 -16 -35 -12 0 -14 5 -9 18 4 9 10 31 13 47 6 36 28 55 45 39z
m610 -21 c20 -16 39 -36 42 -45 9 -27 20 -22 34 18 7 20 23 40 37 46 22 10 28
8 49 -18 13 -16 24 -37 25 -46 0 -26 18 -31 22 -6 4 30 50 53 78 38 53 -28
-14 -74 -105 -72 -33 0 -99 1 -146 2 l-86 0 5 31 c3 22 1 30 -7 25 -6 -4 -11
-14 -11 -22 0 -19 -16 -18 -24 2 -11 28 -6 53 12 63 26 16 36 13 75 -16z m841
9 c31 10 39 9 47 -3 11 -18 23 -78 16 -85 -4 -5 -84 -8 -114 -5 -15 1 -37 77
-28 98 5 14 7 14 23 0 15 -14 24 -15 56 -5z m6560 10 c2 -4 1 -14 -4 -22 -7
-11 -12 -12 -21 -3 -6 6 -8 16 -5 22 8 13 23 14 30 3z m646 -2 c12 -8 12 -10
-3 -16 -10 -3 -25 -20 -33 -37 -12 -23 -18 -27 -25 -16 -10 17 -12 63 -2 72 9
10 46 8 63 -3z m66 -16 c-3 -9 -6 -21 -6 -27 -1 -13 -30 22 -30 35 0 4 9 8 21
8 15 0 19 -4 15 -16z m134 -15 c0 -17 -4 -28 -10 -24 -5 3 -10 17 -10 31 0 13
5 24 10 24 6 0 10 -14 10 -31z m-7180 -4 c10 -12 10 -21 2 -40 -13 -29 -24
-31 -42 -10 -11 13 -15 13 -41 0 -46 -25 -69 -20 -69 14 0 35 24 46 75 37 19
-4 36 -2 40 4 9 14 20 13 35 -5z m-2286 -7 c111 -2 129 -5 137 -20 5 -10 19
-18 29 -18 11 0 20 -4 20 -10 0 -5 -23 -10 -51 -10 -39 0 -55 5 -67 21 -16 19
-20 19 -65 7 -37 -9 -54 -10 -79 0 -21 8 -37 8 -49 1 -16 -8 -19 -6 -19 16 0
15 4 24 8 21 5 -3 66 -6 136 -8z m-1444 -24 c0 -22 -2 -23 -20 -14 -16 9 -28
7 -52 -4 -44 -22 -81 -20 -96 5 l-13 21 -23 -21 c-24 -23 -66 -28 -66 -8 1 36
20 41 183 44 87 2 87 2 87 -23z m233 3 c11 -15 16 -14 52 3 55 27 105 27 105
0 0 -17 -7 -20 -39 -20 -22 0 -41 -5 -43 -10 -2 -6 -27 -12 -57 -14 -43 -2
-57 1 -72 17 -10 12 -19 16 -19 9 0 -6 -14 -19 -31 -28 -26 -13 -33 -14 -40
-2 -12 17 -11 42 1 54 16 16 129 9 143 -9z m501 14 c5 0 -1 -12 -14 -26 -27
-29 -74 -33 -108 -9 -20 14 -23 14 -28 0 -4 -12 -20 -16 -55 -16 -47 0 -49 1
-49 29 l0 28 123 -2 c67 -1 126 -3 131 -4z m331 -2 c3 -5 1 -18 -5 -29 -8 -15
-21 -20 -55 -20 -24 0 -47 5 -50 10 -10 15 -50 12 -84 -7 -39 -23 -61 -7 -43
31 11 24 14 25 121 24 61 0 113 -4 116 -9z m2841 2 c22 18 26 6 8 -29 -20 -40
-48 -41 -67 -2 -17 32 -6 44 26 28 12 -6 23 -5 33 3z m-7973 -56 c-7 -21 -13
-19 -13 6 0 11 4 18 10 14 5 -3 7 -12 3 -20z m101 -76 c15 -14 -21 -22 -69
-15 -30 5 -45 12 -45 22 0 12 10 13 53 8 28 -4 56 -10 61 -15z m698 -375 c78
1 95 -6 77 -35 -6 -10 -32 -14 -96 -15 -48 -1 -96 -5 -105 -9 -22 -9 -40 31
-27 57 7 13 16 15 41 8 18 -4 68 -7 110 -6z m242 10 c29 -11 18 -39 -22 -57
-48 -21 -62 -21 -63 -2 -1 8 -2 20 -3 27 -1 6 15 17 34 24 19 7 36 13 37 13 1
1 8 -2 17 -5z m-836 -36 c3 -25 2 -26 -37 -21 -26 4 -46 1 -56 -7 -13 -10 -19
-10 -33 4 -23 20 -61 21 -68 1 -9 -21 -44 -19 -44 3 0 30 16 45 42 39 13 -4
37 -3 53 2 17 4 55 7 85 7 52 -1 55 -3 58 -28z m227 20 c33 1 76 3 95 4 31 3
35 0 35 -22 0 -21 -5 -25 -30 -27 -76 -4 -173 -13 -207 -19 -35 -5 -39 -3 -49
22 -14 38 10 57 61 47 19 -3 62 -6 95 -5z m922 -5 c7 -21 -36 -56 -60 -48 -91
28 -94 28 -117 5 -12 -12 -31 -20 -43 -18 -18 2 -21 8 -18 33 1 17 7 33 12 36
18 11 222 4 226 -8z m-1931 -852 l24 -19 -32 -6 c-36 -7 -52 3 -42 27 8 22 20
21 50 -2z m-93 -16 c1 -6 -10 -11 -25 -13 -31 -4 -39 14 -10 21 23 6 33 4 35
-8z m1137 -86 c0 -46 -17 -67 -60 -71 -31 -3 -37 1 -52 32 -24 47 -23 76 2 83
15 4 24 -2 35 -24 9 -16 18 -29 20 -29 3 0 12 17 20 37 13 30 18 35 25 23 5
-8 10 -31 10 -51z m500 15 c0 -28 21 -24 31 6 13 35 28 35 46 0 26 -52 -41
-124 -83 -89 -9 7 -28 12 -41 11 -24 -4 -24 -2 -18 45 8 57 33 83 52 56 7 -9
13 -22 13 -29z m-920 26 c11 -7 6 -10 -20 -10 -26 0 -31 3 -20 10 8 5 17 10
20 10 3 0 12 -5 20 -10z m104 -12 c15 -23 16 -23 31 -3 13 17 18 18 36 6 15
-9 24 -10 32 -2 19 19 27 12 27 -24 0 -42 -24 -59 -56 -39 -18 13 -23 12 -34
-1 -21 -25 -48 -18 -53 13 -4 25 -4 25 -6 -5 -1 -28 -5 -33 -26 -33 -21 0 -25
5 -25 31 0 19 9 41 23 55 27 29 31 29 51 2z m594 -4 c3 -22 -32 -45 -55 -37
-23 8 -15 51 10 56 33 6 42 3 45 -19z m8248 -29 c-7 -35 -8 -36 -26 -20 -15
13 -25 15 -53 7 -74 -21 -113 11 -56 45 25 15 28 15 54 -5 32 -25 45 -28 45
-9 0 7 5 18 12 25 19 19 31 -3 24 -43z m154 7 c0 -28 -21 -52 -46 -52 -19 0
-28 8 -40 35 -20 49 -18 53 24 57 38 3 62 -12 62 -40z m174 39 c7 -11 -40 -58
-66 -67 -25 -7 -37 9 -30 41 3 17 12 25 31 28 48 7 60 7 65 -2z m93 -19 c32
-27 32 -27 13 -50 -24 -28 -46 -20 -60 24 -11 32 -7 54 8 54 4 0 21 -13 39
-28z m330 -3 c-11 -18 -12 -18 -18 -1 -8 22 -2 33 16 26 11 -5 12 -10 2 -25z
m-9114 0 c7 -12 5 -21 -11 -37 -12 -12 -22 -26 -22 -32 0 -5 -11 -10 -25 -10
-22 0 -25 4 -25 34 0 55 9 67 43 64 16 -2 34 -10 40 -19z m177 -18 c0 -61 -50
-97 -58 -43 -2 15 4 25 22 34 14 6 26 19 26 30 0 10 2 18 5 18 3 0 5 -18 5
-39z m8838 12 c9 -65 -53 -85 -87 -29 -31 50 -28 55 32 53 45 -2 52 -5 55 -24z
m551 5 c12 -32 -6 -51 -38 -43 -37 9 -44 20 -29 44 17 28 56 28 67 -1z m-1527
-40 c-9 -9 -12 -4 -11 23 0 32 1 33 11 11 8 -17 8 -26 0 -34z m-8675 -20 c-3
-20 -4 -21 -11 -5 -5 9 -5 29 0 45 7 25 8 26 11 5 3 -13 3 -33 0 -45z m9953
36 c0 -20 -4 -25 -16 -20 -9 3 -20 6 -25 6 -16 0 -9 28 9 33 31 8 32 7 32 -19z
m-120 0 c0 -2 -7 -4 -15 -4 -8 0 -15 4 -15 10 0 5 7 7 15 4 8 -4 15 -8 15 -10z
m-77 -35 c5 -3 2 -9 -7 -12 -12 -5 -16 0 -16 15 0 12 3 17 8 12 4 -5 11 -12
15 -15z m-4265 -5 c36 -7 64 -79 51 -127 -20 -75 45 -70 -803 -63 -1092 10
-1363 14 -1521 27 -77 6 -187 12 -245 13 -58 2 -110 3 -116 4 -17 3 -38 56
-24 60 6 2 15 15 20 28 6 16 17 24 33 24 34 0 38 -9 16 -31 -21 -21 -23 -28
-11 -46 6 -9 17 -10 45 -2 21 5 46 7 57 4 11 -3 29 -1 41 5 21 12 21 12 -6 26
-15 8 -36 14 -46 14 -25 0 -33 16 -11 25 9 4 123 9 252 11 129 2 321 9 425 14
105 5 361 11 570 11 209 1 547 5 750 8 364 6 477 5 523 -5z m-5558 -30 c0 -14
-4 -22 -10 -19 -5 3 -10 17 -10 31 0 14 4 22 10 19 6 -3 10 -17 10 -31z m6660
5 c0 -47 17 -72 40 -59 11 6 20 15 20 21 0 5 7 21 17 35 22 34 33 15 33 -58 0
-64 -11 -79 -37 -49 -9 11 -20 17 -23 13 -3 -4 -19 -17 -36 -29 l-31 -22 -13
23 c-7 13 -9 33 -6 43 4 12 0 25 -9 33 -19 16 -19 44 1 64 25 26 44 20 44 -15z
m3290 21 c0 -5 -2 -10 -4 -10 -3 0 -8 5 -11 10 -3 6 -1 10 4 10 6 0 11 -4 11
-10z m-2835 -95 l-6 -46 -110 3 c-86 2 -108 6 -104 16 3 8 5 25 5 38 0 15 6
24 15 24 8 0 23 9 32 20 23 26 33 25 33 -3 0 -13 6 -31 13 -41 12 -17 14 -16
25 8 16 36 42 34 42 -3 0 -35 13 -46 30 -26 10 12 9 20 -4 40 -9 13 -16 33
-16 44 0 19 2 19 26 -4 24 -22 26 -29 19 -70z m-222 61 c7 -18 -1 -26 -25 -26
-11 0 -18 7 -18 20 0 23 35 28 43 6z m587 -64 c0 -28 -8 -31 -40 -15 -45 22
-45 33 -1 33 33 0 41 -4 41 -18z m100 8 c0 -5 -13 -10 -30 -10 -16 0 -30 5
-30 10 0 6 14 10 30 10 17 0 30 -4 30 -10z m140 -21 c0 -26 -3 -30 -22 -27
-17 2 -24 11 -26 31 -3 23 0 27 22 27 22 0 26 -4 26 -31z m98 4 c3 -20 0 -22
-20 -14 -32 12 -38 44 -6 39 15 -2 24 -11 26 -25z m147 17 c-3 -5 -19 -10 -36
-10 -16 0 -29 5 -29 10 0 6 16 10 36 10 21 0 33 -4 29 -10z m-605 -10 c0 -13
-11 -13 -30 0 -12 8 -11 10 8 10 12 0 22 -4 22 -10z m5536 -24 c3 -13 4 -221
2 -462 -3 -402 -5 -442 -22 -479 -10 -22 -30 -66 -44 -97 -14 -32 -38 -69 -52
-83 l-27 -26 -412 -6 c-409 -6 -411 -6 -411 14 0 12 -8 23 -20 26 -23 6 -34
-7 -26 -28 4 -11 -2 -15 -18 -15 l-24 0 1 401 c2 370 3 401 20 410 11 7 17 22
17 44 0 18 7 40 15 49 9 8 22 31 30 49 8 19 25 45 39 58 14 13 26 30 26 37 0
7 16 20 35 28 19 8 35 18 35 22 0 7 62 41 105 58 11 4 148 10 305 13 157 3
315 7 352 8 63 2 68 1 74 -21z m1205 7 c8 -8 10 -135 7 -460 -3 -390 -6 -453
-20 -483 -9 -19 -20 -46 -24 -60 -4 -14 -15 -36 -25 -49 -11 -13 -19 -29 -19
-35 0 -28 -38 -43 -126 -49 -177 -11 -330 -55 -394 -114 l-38 -34 -125 2
c-121 1 -125 2 -136 25 -6 13 -7 24 -2 24 5 0 -5 15 -22 33 -46 48 -64 72 -72
97 -6 20 -8 20 -19 4 -31 -42 -35 -6 -36 327 0 288 2 335 16 366 10 19 18 48
19 64 1 16 2 40 3 54 1 15 8 25 17 25 8 0 15 7 15 16 0 23 43 94 58 94 7 0 18
12 25 28 20 46 60 59 70 22 3 -11 12 -20 21 -20 23 0 20 27 -4 33 -33 8 -23
34 18 48 20 7 48 19 61 27 19 13 74 16 310 20 157 2 287 5 288 5 8 8 125 -1
134 -10z m632 -206 c45 -42 60 -96 60 -222 -1 -120 -14 -174 -54 -220 -27 -31
-37 -35 -78 -35 -57 1 -81 19 -111 86 -18 41 -22 67 -23 159 -1 128 11 176 53
228 28 32 37 37 75 37 35 0 50 -6 78 -33z m302 7 c54 -41 71 -119 38 -175 -17
-29 -17 -31 6 -71 62 -108 0 -238 -114 -238 -38 0 -51 6 -85 36 -33 30 -40 43
-40 73 0 20 5 42 12 49 20 20 57 14 69 -11 6 -13 20 -29 31 -36 28 -17 58 11
58 54 0 29 -5 35 -40 49 -31 12 -40 21 -40 40 0 24 23 56 40 56 4 0 13 13 18
29 21 60 -40 83 -66 26 -16 -34 -58 -34 -73 -1 -16 35 -5 68 38 110 47 46 97
49 148 10z m-5919 -104 c1 -19 3 -41 5 -49 2 -8 -8 -18 -26 -24 -16 -5 -37
-16 -46 -23 -8 -8 -21 -14 -27 -14 -19 0 -101 -54 -102 -67 0 -21 -18 -15 -31
9 -12 22 -12 22 -19 3 -5 -13 -2 -23 6 -28 21 -12 17 -45 -6 -52 -14 -4 -20
-15 -20 -34 0 -15 -9 -36 -20 -46 -18 -17 -20 -28 -16 -163 4 -136 3 -146 -16
-162 -18 -14 -18 -17 -4 -29 17 -14 36 -7 36 15 0 25 17 15 23 -13 5 -25 46
-73 109 -129 63 -56 212 -80 255 -41 11 9 27 17 36 17 26 0 130 109 154 160
31 65 37 103 38 215 0 95 1 100 22 103 12 2 27 10 33 18 37 43 60 -11 60 -141
0 -105 -30 -223 -75 -301 -40 -69 -121 -142 -195 -177 -58 -28 -74 -31 -162
-31 -85 0 -102 3 -127 22 -17 12 -36 22 -44 22 -17 0 -87 64 -87 79 0 6 -7 14
-15 17 -8 4 -15 12 -15 19 0 7 -9 15 -20 18 -15 4 -20 14 -20 36 0 21 -5 31
-15 31 -11 0 -15 11 -15 38 0 25 -7 43 -20 55 -18 15 -20 29 -20 175 0 87 3
162 7 165 3 4 13 -2 21 -14 10 -14 17 -18 25 -10 7 7 5 23 -8 51 -15 33 -16
44 -6 63 23 42 36 64 51 80 8 9 24 28 35 43 11 14 25 30 30 35 43 38 78 60
104 65 17 4 31 10 31 15 0 10 29 17 65 16 26 -2 29 -6 31 -37z m1471 -10 c-2
-57 -6 -62 -72 -86 -55 -19 -122 -62 -145 -91 -40 -50 -60 -83 -66 -109 -4
-16 -14 -35 -22 -43 -11 -11 -13 -40 -11 -131 2 -65 9 -123 15 -131 6 -8 14
-27 18 -43 10 -43 78 -123 133 -159 26 -17 49 -32 51 -33 2 -1 0 -31 -4 -66
l-6 -65 -48 23 c-47 22 -170 145 -170 169 0 6 -9 20 -19 29 -10 10 -22 38 -26
64 -4 26 -12 50 -18 54 -20 12 -16 264 6 316 9 23 17 54 17 67 0 14 4 25 9 25
5 0 15 17 22 38 16 50 135 165 202 197 29 13 71 24 94 25 l41 0 -1 -50z
m-3925 -248 c-2 -16 3 -45 11 -64 14 -34 14 -38 -4 -54 -25 -23 -49 -3 -49 42
0 18 -4 36 -10 39 -17 10 -11 44 11 66 26 26 47 11 41 -29z m257 21 c6 -11 23
-19 43 -20 100 -6 98 -5 98 -53 0 -25 -5 -30 -37 -39 -51 -15 -50 -15 -45 20
5 34 -8 49 -46 49 -14 0 -26 -9 -33 -22 -5 -13 -16 -34 -24 -48 l-15 -25 0 26
c0 16 7 29 16 33 13 5 15 15 11 46 -3 21 -2 41 1 44 10 11 21 6 31 -11z m-154
-26 c8 -43 3 -100 -10 -104 -6 -2 -11 26 -12 67 -2 72 11 95 22 37z m336 0
c13 -4 19 -14 19 -34 0 -52 -11 -73 -36 -73 -30 0 -30 7 -2 30 22 18 22 19 5
54 -9 20 -16 42 -16 49 1 7 3 5 6 -4 2 -10 13 -19 24 -22z m-2436 11 c6 -3 18
-22 29 -42 20 -38 17 -67 -12 -105 l-19 -23 -439 1 c-644 1 -1177 12 -1191 24
-9 6 -23 5 -43 -3 -17 -7 -34 -10 -38 -6 -10 11 -9 75 2 73 5 -1 11 4 13 11 9
25 -18 11 -35 -18 -22 -38 -42 -39 -42 -1 0 44 36 77 80 75 19 -1 41 -3 48 -3
7 -1 12 -17 12 -43 1 -40 2 -41 15 -24 11 14 12 24 4 39 -8 15 -8 22 2 28 8 5
127 9 264 10 138 1 459 5 715 8 575 7 623 7 635 -1z m2813 -57 c12 -7 12 -12
1 -29 -11 -18 -16 -19 -29 -8 -22 19 -55 25 -95 16 -27 -6 -35 -5 -35 6 0 9
19 14 68 17 37 2 69 4 72 5 3 1 11 -2 18 -7z m92 -11 c0 -5 -13 -10 -30 -10
-16 0 -30 5 -30 10 0 6 14 10 30 10 17 0 30 -4 30 -10z m155 -12 c-11 -35 -21
-41 -39 -23 -26 26 -20 45 15 45 27 0 30 -3 24 -22z m85 8 c0 -23 -29 -27 -40
-6 -9 17 -7 20 15 20 15 0 25 -6 25 -14z m160 5 c0 -5 -18 -11 -41 -13 -39 -4
-55 2 -42 16 10 9 83 7 83 -3z m-8477 -48 c-7 -2 -19 -2 -25 0 -7 3 -2 5 12 5
14 0 19 -2 13 -5z m9649 -99 c6 -62 5 -71 -14 -91 -27 -29 -39 -28 -61 2 -19
27 -21 24 28 40 21 6 19 48 -5 78 -23 29 -25 38 -8 55 9 9 17 9 32 -2 16 -10
23 -29 28 -82z m-132 66 c24 -24 26 -58 5 -66 -11 -5 -15 -21 -15 -59 0 -61
-6 -69 -40 -52 -36 18 -35 38 5 82 37 43 40 58 9 64 -28 5 -44 20 -37 37 8 20
50 17 73 -6z m1443 -27 c-1 -31 3 -42 15 -46 9 -3 25 -8 34 -12 14 -6 22 4 42
49 37 84 49 75 60 -46 3 -36 0 -62 -8 -73 -11 -15 -14 -15 -46 2 -19 10 -36
21 -38 25 -3 7 -15 0 -53 -34 -10 -10 -22 -18 -27 -18 -34 0 -56 155 -26 185
29 28 49 14 47 -32z m247 23 c0 -7 11 -25 25 -40 14 -15 25 -31 25 -37 0 -5
11 -9 24 -9 16 0 26 -7 29 -21 9 -33 -2 -51 -27 -43 -31 10 -48 25 -63 61 -8
20 -23 35 -38 39 -30 7 -35 48 -8 63 20 11 33 6 33 -13z m-10687 -12 c-10 -7
-22 -9 -27 -4 -14 13 2 29 24 23 19 -5 19 -6 3 -19z m808 5 c-2 -8 -7 -36 -11
-64 l-7 -50 -2 45 c-1 25 -5 52 -10 60 -6 8 -7 18 -4 23 8 14 38 2 34 -14z
m270 -49 c4 0 12 14 19 30 10 24 18 30 44 30 31 0 32 -2 45 -61 16 -68 5 -97
-22 -59 -13 18 -18 20 -36 10 -22 -11 -116 -9 -128 4 -3 3 -21 6 -39 6 -39 0
-46 8 -38 49 5 24 12 31 29 31 17 0 24 -7 29 -30 6 -33 36 -42 36 -11 0 11 5
32 11 48 l12 28 16 -37 c9 -21 19 -38 22 -38z m252 63 c3 -5 2 -35 -3 -68 -7
-58 -7 -58 -9 -15 -1 25 -5 52 -10 60 -10 15 -6 30 9 30 5 0 11 -3 13 -7z
m7906 -23 c17 -17 31 -34 31 -39 0 -5 16 -18 35 -30 41 -24 47 -56 12 -63 -27
-5 -38 4 -58 50 -9 22 -23 35 -44 40 -24 7 -31 14 -33 40 -4 41 15 42 57 2z
m-9086 13 c-7 -2 -21 -2 -30 0 -10 3 -4 5 12 5 17 0 24 -2 18 -5z m210 0 c-7
-2 -19 -2 -25 0 -7 3 -2 5 12 5 14 0 19 -2 13 -5z m157 -65 c0 -69 -1 -71 -16
-50 -14 20 -21 22 -59 17 -25 -4 -45 -3 -49 3 -12 20 6 70 30 81 22 10 26 8
34 -15 6 -14 10 -30 10 -35 0 -6 5 -7 11 -3 6 3 9 22 7 40 -3 28 -1 34 14 34
16 0 18 -9 18 -72z m210 18 c0 -47 -3 -54 -22 -59 -15 -4 -30 1 -43 13 -12 11
-26 20 -32 20 -15 0 -25 33 -17 54 3 9 15 16 25 16 14 0 19 -7 19 -29 0 -55
45 -51 56 5 9 49 14 42 14 -20z m-513 22 c14 -17 23 -108 12 -108 -5 0 -9 5
-9 10 0 6 -12 15 -26 20 -23 9 -25 14 -19 43 11 50 22 60 42 35z m-831 -13
c13 -4 14 -8 4 -20 -20 -25 -50 -19 -50 10 0 17 4 23 15 20 8 -3 22 -7 31 -10z
m188 6 c8 -13 -14 -72 -25 -65 -10 6 -12 57 -2 67 9 10 21 9 27 -2z m521 -1
c10 -17 -6 -58 -26 -63 -26 -7 -35 16 -21 49 12 24 36 32 47 14z m215 -40 c0
-16 -4 -30 -10 -30 -11 0 -14 43 -3 53 11 12 13 8 13 -23z m14554 7 c15 10
127 3 148 -8 14 -8 23 -8 31 0 16 16 67 13 73 -4 8 -19 -13 -45 -34 -45 -8 0
-24 7 -33 16 -17 15 -21 15 -41 2 -24 -16 -99 -17 -151 -3 -17 5 -41 1 -68 -9
-29 -12 -45 -14 -54 -6 -7 6 -31 7 -56 4 -34 -5 -48 -2 -58 10 -12 14 -15 14
-28 0 -13 -12 -30 -14 -92 -9 -94 8 -111 13 -111 30 0 17 91 29 170 22 31 -3
62 -2 68 2 6 3 59 3 119 0 59 -4 112 -5 117 -2z m-15366 -42 c-12 -27 -38 -23
-38 5 0 19 17 30 37 23 9 -4 9 -11 1 -28z m502 -17 c0 -5 -7 -8 -15 -8 -15 0
-20 21 -8 33 7 7 23 -11 23 -25z m153 -5 c-7 -2 -21 -2 -30 0 -10 3 -4 5 12 5
17 0 24 -2 18 -5z m210 0 c-7 -2 -19 -2 -25 0 -7 3 -2 5 12 5 14 0 19 -2 13
-5z m14333 -35 c10 6 25 7 34 2 27 -14 84 -13 120 3 32 14 37 14 74 -5 30 -15
44 -18 57 -10 13 8 19 6 29 -13 7 -13 9 -28 6 -34 -8 -13 -410 -11 -423 2 -4
5 -1 13 8 18 9 4 22 23 29 40 l13 31 17 -22 c14 -18 21 -21 36 -12z m-143 -15
c23 -46 14 -53 -70 -53 -96 0 -111 12 -73 59 17 20 27 23 60 18 22 -3 43 -1
46 4 10 16 19 9 37 -28z m179 -109 c20 -3 46 0 58 6 28 15 54 5 68 -26 20 -42
16 -47 -35 -40 -27 4 -55 9 -64 12 -10 3 -20 -5 -27 -21 -15 -32 -34 -32 -68
0 -39 36 -84 31 -84 -9 0 -20 -1 -20 -19 4 -19 24 -20 24 -41 5 -42 -38 -124
-8 -118 44 2 20 10 28 33 33 32 7 234 1 297 -8z m455 -3 c10 -5 9 -12 0 -31
-10 -21 -21 -26 -61 -28 -39 -3 -53 1 -72 19 -23 21 -25 21 -43 5 -10 -9 -35
-19 -55 -23 -32 -5 -37 -3 -46 22 -15 38 -1 46 82 43 37 -1 71 1 74 5 8 8 101
-2 121 -12z m-464 -120 c10 -41 -3 -44 -149 -38 -77 3 -149 9 -162 13 -22 6
-22 8 -6 25 15 17 33 19 164 19 136 0 148 -1 153 -19z m-15212 -432 c21 -35
28 -61 32 -131 6 -95 -4 -121 -43 -111 -14 4 -23 -2 -31 -21 -16 -35 -52 -35
-68 0 -9 20 -17 25 -38 22 -35 -4 -44 29 -26 91 7 24 13 63 13 85 0 28 8 54
26 79 47 70 87 66 135 -14z m1453 -49 c14 -5 26 -14 26 -19 0 -12 -48 -23 -71
-16 -31 10 -22 40 13 44 4 1 18 -3 32 -9z m196 -14 c0 -8 -6 -19 -14 -25 -12
-10 -12 -16 2 -41 24 -42 7 -58 -47 -41 -39 11 -40 12 -34 49 7 57 10 61 45
70 37 10 48 7 48 -12z m-1140 6 c0 -4 -9 -15 -20 -25 -15 -13 -19 -24 -14 -45
9 -38 13 -42 35 -42 10 0 19 -6 19 -14 0 -37 -51 -30 -68 10 -13 27 -16 106
-5 117 9 10 53 9 53 -1z m1288 -50 c3 -56 -13 -77 -42 -53 -11 9 -17 8 -29 -3
-21 -21 -27 -10 -27 50 0 57 7 64 65 61 29 -2 30 -4 33 -55z m-279 -69 c1 -14
-5 -23 -14 -23 -12 0 -15 13 -14 58 l1 57 13 -35 c7 -19 14 -45 14 -57z
m12129 -411 c-4 -2 -15 -2 -23 0 -14 3 -13 6 2 28 l17 24 6 -24 c4 -14 3 -26
-2 -28z m162 8 c9 0 21 5 27 11 8 8 17 8 31 0 28 -15 105 -14 120 1 10 10 15
10 22 -2 5 -8 8 -15 7 -17 -2 -1 -54 -4 -117 -6 -63 -2 -122 -7 -131 -11 -19
-8 -30 12 -22 42 5 21 5 21 26 1 11 -10 28 -19 37 -19z m378 13 c12 -3 22 -9
22 -13 0 -11 -67 -22 -91 -15 -20 7 -20 8 -3 26 11 12 24 17 33 13 9 -4 26 -9
39 -11z m-618 -7 l32 -13 -33 -7 c-34 -7 -56 5 -45 23 9 14 7 14 46 -3z m-100
-6 c11 -7 7 -10 -18 -10 -20 0 -31 4 -27 10 8 13 26 13 45 0z m1797 -62 c30
-34 32 -165 3 -196 -37 -40 -93 -21 -76 25 5 12 9 14 18 5 22 -22 38 -13 38
21 0 38 -24 93 -46 105 -12 7 -13 14 -5 35 13 33 40 35 68 5z m373 16 c0 -3
-5 -14 -11 -25 -8 -16 -5 -27 15 -54 41 -53 43 -84 7 -124 -24 -27 -35 -32
-55 -27 -34 8 -33 22 3 41 30 15 47 47 36 65 -3 5 -23 14 -45 20 -36 10 -38
12 -30 39 14 51 30 71 55 71 14 0 25 -3 25 -6z m167 -26 c-5 -32 -38 -137 -58
-186 -5 -13 -14 -20 -19 -17 -15 9 -12 66 5 99 19 36 19 90 0 110 -23 22 -19
26 31 26 l46 0 -5 -32z m-305 -40 c-1 -24 2 -58 8 -77 7 -25 6 -38 -7 -57 -14
-22 -18 -23 -32 -10 -9 8 -28 19 -44 25 -33 13 -36 47 -7 81 11 13 20 33 20
46 0 27 39 59 54 44 5 -5 9 -29 8 -52z m-2727 -98 c-3 -5 -12 -10 -18 -10 -7
0 -6 4 3 10 19 12 23 12 15 0z m137 -31 c-2 -13 -10 -29 -18 -35 -8 -6 -14
-15 -14 -19 0 -4 -15 -21 -32 -38 -27 -25 -43 -31 -90 -35 -47 -4 -58 -2 -58
11 0 8 6 15 13 14 60 -2 80 5 117 42 22 22 44 51 50 66 12 32 36 28 32 -6z
m537 5 c-9 -11 -15 -12 -26 -3 -17 14 1 31 24 22 10 -4 11 -9 2 -19z m151 7
c0 -3 -7 -14 -14 -24 -12 -15 -15 -15 -26 -2 -6 8 -28 18 -49 22 l-36 8 50 5
c51 6 75 3 75 -9z m63 -12 c-8 -30 -19 -31 -37 -5 -14 23 -14 25 2 28 27 7 40
-2 35 -23z m213 18 c8 -7 -9 -11 -39 -7 -10 1 -25 -7 -32 -17 -13 -17 -14 -17
-32 0 -11 9 -26 17 -34 17 -12 0 -11 2 1 10 17 11 125 9 136 -3z m133 4 c10
-7 8 -12 -10 -25 -30 -21 -42 -20 -63 3 -17 18 -17 19 1 24 30 8 57 7 72 -2z
m211 -11 c0 -15 -7 -20 -29 -20 -17 0 -33 -4 -36 -10 -3 -5 -17 -10 -31 -10
-22 0 -24 2 -13 23 16 31 28 37 72 37 30 0 37 -4 37 -20z m-6222 -70 c14 0 22
-6 22 -16 0 -12 -6 -15 -20 -11 -17 4 -24 -2 -36 -34 -9 -21 -20 -39 -25 -39
-10 0 -12 73 -3 108 6 21 8 21 24 7 9 -8 26 -15 38 -15z m-7978 -20 c0 -5 -2
-10 -4 -10 -3 0 -8 5 -11 10 -3 6 -1 10 4 10 6 0 11 -4 11 -10z m-140 -40 c0
-16 -4 -30 -9 -30 -5 0 -18 -3 -28 -6 -11 -4 -14 -3 -7 3 6 4 14 20 18 36 9
36 26 35 26 -3z m170 -32 c0 -40 0 -41 -20 -23 -30 27 -26 65 7 65 9 0 13 -14
13 -42z m7997 -35 c-2 -16 -4 -5 -4 22 0 28 2 40 4 28 2 -13 2 -35 0 -50z
m-7027 -9 c0 -56 -27 -87 -73 -82 -32 3 -32 3 -35 65 -2 51 0 62 11 57 8 -3
20 -16 28 -30 l13 -25 18 36 c24 45 38 37 38 -21z m130 -45 c0 -16 -33 -32
-44 -21 -8 7 -7 67 1 87 5 14 9 11 24 -16 10 -19 18 -41 19 -50z m-1257 57
c15 -12 15 -15 2 -26 -8 -7 -15 -19 -15 -26 0 -8 -4 -14 -10 -14 -5 0 -10 18
-10 40 0 43 5 47 33 26z m8017 -185 c-5 -14 -12 -64 -15 -111 -10 -157 -17
-220 -26 -214 -5 2 -6 24 -3 48 5 30 1 52 -11 76 -15 28 -15 41 -6 89 6 31 15
79 20 106 11 53 28 133 39 175 4 15 8 -8 10 -59 2 -47 -2 -96 -8 -110z m-7864
122 c-11 -11 -17 4 -9 23 7 18 8 18 11 1 2 -10 1 -21 -2 -24z m434 -21 c0 -21
-2 -24 -10 -12 -13 20 -13 53 0 45 6 -3 10 -18 10 -33z m-460 -7 c0 -8 -7 -15
-16 -15 -14 0 -14 3 -4 15 7 8 14 15 16 15 2 0 4 -7 4 -15z m8069 -107 c-2
-58 -3 -65 -8 -33 -6 39 -3 105 5 105 2 0 3 -33 3 -72z m4719 45 c3 -10 -9
-11 -45 -7 -69 9 -80 26 -14 22 32 -2 56 -8 59 -15z m40 -29 c12 -4 22 -11 22
-17 0 -6 8 -20 19 -31 21 -23 35 -94 22 -114 -5 -8 -12 7 -20 43 -7 30 -17 55
-22 55 -5 0 -13 8 -16 18 -4 9 -16 25 -28 34 -21 18 -15 22 23 12z m1165 -59
c-6 -18 -34 -16 -41 3 -2 7 6 12 22 12 19 0 24 -4 19 -15z m177 0 c0 -8 -11
-21 -24 -30 -27 -18 -60 -10 -52 12 3 8 6 19 6 24 0 5 16 9 35 9 24 0 35 -5
35 -15z m-275 -27 c26 -3 24 -4 -12 -9 -40 -4 -43 -3 -43 20 0 22 1 23 13 9 6
-9 26 -18 42 -20z m1355 -48 c11 -11 20 -24 20 -29 0 -18 -18 -21 -34 -6 -12
12 -20 13 -35 6 -26 -15 -40 18 -15 36 25 18 41 16 64 -7z m-2480 -10 c18 -18
28 -50 15 -50 -15 0 -63 31 -68 44 -12 31 24 35 53 6z m1053 -157 c7 2 21 1
32 -4 16 -6 14 -8 -13 -8 -18 -1 -42 -6 -54 -12 -24 -13 -32 -7 -23 20 5 18
10 19 26 10 12 -6 26 -9 32 -6z m157 -8 c-13 -16 -40 -19 -80 -8 l-25 7 25 7
c14 4 40 7 59 8 29 1 32 -1 21 -14z m-7610 -131 c0 -8 -5 -12 -10 -9 -6 4 -8
11 -5 16 9 14 15 11 15 -7z m1459 -62 c-2 -100 -17 -116 -18 -19 -1 57 3 86 9
82 6 -3 10 -32 9 -63z m-1419 18 c0 -5 -4 -10 -10 -10 -5 0 -10 5 -10 10 0 6
5 10 10 10 6 0 10 -4 10 -10z m248 -2 c-7 -20 -48 -23 -48 -4 0 11 9 16 26 16
16 0 24 -5 22 -12z m992 -43 c0 -34 -5 -47 -19 -55 -11 -5 -22 -10 -25 -10
-12 0 -6 98 7 103 31 13 37 6 37 -38z m509 -75 c12 -9 31 -60 22 -60 -4 0 -13
11 -19 25 -6 14 -16 25 -22 25 -5 0 -10 21 -9 48 l1 47 10 -40 c6 -22 14 -42
17 -45z m2461 70 c0 -5 -2 -10 -4 -10 -3 0 -8 5 -11 10 -3 6 -1 10 4 10 6 0
11 -4 11 -10z m860 -224 c0 -129 -2 -240 -5 -248 -4 -10 -63 -12 -307 -10
-167 1 -306 6 -310 10 -8 8 -9 28 -7 283 l2 176 241 2 c132 0 268 5 301 10 33
4 66 9 73 10 9 1 12 -52 12 -233z m-1627 206 c15 -2 33 1 40 6 19 16 53 4 66
-24 13 -29 27 -31 34 -4 3 11 16 24 29 29 37 14 55 -10 63 -85 6 -55 4 -69
-11 -85 -24 -26 -41 -24 -74 11 -26 28 -29 29 -34 12 -4 -11 -19 -25 -33 -31
-25 -11 -30 -10 -48 11 l-21 24 -24 -23 c-28 -26 -30 -26 -63 -14 -28 11 -41
66 -31 130 7 41 35 65 64 54 8 -3 27 -8 43 -11z m-186 -32 c7 -19 12 -54 12
-77 1 -35 -4 -46 -24 -59 -42 -27 -100 1 -81 39 4 6 13 23 21 37 13 22 12 27
-5 45 -25 27 -25 34 3 45 39 16 61 7 74 -30z m-3227 8 c0 -18 -2 -20 -9 -8 -6
8 -7 18 -5 22 9 14 14 9 14 -14z m1850 -12 c0 -19 -4 -38 -10 -41 -6 -4 -10
10 -10 34 0 23 5 41 10 41 6 0 10 -15 10 -34z m2397 2 c-3 -7 -5 -2 -5 12 0
14 2 19 5 13 2 -7 2 -19 0 -25z m-4097 13 c0 -6 -4 -13 -10 -16 -5 -3 -10 1
-10 9 0 9 5 16 10 16 6 0 10 -4 10 -9z m4000 -10 c0 -11 -4 -23 -10 -26 -6 -4
-10 5 -10 19 0 14 5 26 10 26 6 0 10 -9 10 -19z m-4115 -31 c3 -5 1 -10 -4
-10 -6 0 -11 5 -11 10 0 6 2 10 4 10 3 0 8 -4 11 -10z m1325 -34 c0 -26 -6
-48 -15 -56 -13 -11 -15 -8 -15 21 0 43 10 79 21 79 5 0 9 -20 9 -44z m-111
-33 c1 -13 -3 -23 -8 -23 -15 0 -24 39 -15 68 l7 27 7 -25 c5 -14 8 -35 9 -47z
m3071 42 c0 -14 -4 -25 -9 -25 -4 0 -6 11 -3 25 2 14 6 25 8 25 2 0 4 -11 4
-25z m-109 -28 c-8 -8 -11 -5 -11 9 0 27 14 41 18 19 2 -9 -1 -22 -7 -28z
m-101 6 c0 -20 -3 -24 -11 -16 -7 7 -9 19 -6 27 10 24 17 19 17 -11z m-2290
13 c0 -16 -14 -36 -26 -36 -14 0 -19 22 -7 33 7 8 33 10 33 3z m2361 -77 c-9
-23 -10 -22 -10 11 -1 23 2 31 9 24 7 -7 7 -19 1 -35z m105 4 c-11 -11 -19 6
-11 24 8 17 8 17 12 0 3 -10 2 -21 -1 -24z m-10256 12 c-12 -15 -30 -12 -30 6
0 5 10 9 21 9 18 0 19 -2 9 -15z m160 6 c0 -5 -9 -7 -20 -4 -11 3 -20 7 -20 9
0 2 9 4 20 4 11 0 20 -4 20 -9z m203 2 c-7 -2 -19 -2 -25 0 -7 3 -2 5 12 5 14
0 19 -2 13 -5z m155 -68 c3 -69 3 -69 -17 -51 -13 12 -35 18 -60 18 -34 -1
-40 3 -46 26 -5 20 -1 31 15 44 30 24 39 23 50 -8 14 -35 36 -25 32 15 -2 23
2 31 10 29 9 -3 14 -29 16 -73z m297 53 c-3 -13 -9 -41 -14 -63 l-9 -40 -1 37
c-1 20 -5 48 -11 62 -9 24 -7 26 15 26 21 0 25 -4 20 -22z m265 -38 c4 0 12
11 18 25 10 21 19 25 52 25 l40 0 0 -54 c0 -64 -3 -66 -115 -71 -55 -3 -75 0
-79 10 -3 8 -20 15 -38 17 -32 3 -33 4 -30 43 2 22 5 41 7 43 9 9 44 -21 55
-47 13 -32 30 -33 30 -1 0 10 5 31 11 47 l11 28 16 -32 c9 -18 19 -33 22 -33z
m256 29 c-3 -17 -7 -46 -7 -63 -1 -28 -2 -27 -8 9 -4 22 -11 50 -15 63 -6 18
-4 22 15 22 19 0 21 -4 15 -31z m-671 -25 c21 -32 28 -30 48 9 l16 32 0 -53
c1 -51 0 -52 -24 -46 -17 4 -32 1 -45 -11 -10 -9 -27 -15 -37 -12 -16 4 -15 6
5 12 28 9 28 38 0 57 -14 9 -19 20 -15 31 8 21 31 13 52 -19z m6605 21 c15
-18 13 -22 -15 -27 -14 -2 -21 3 -23 20 -4 26 19 30 38 7z m-7186 -8 c26 -19
12 -69 -18 -65 -21 3 -33 36 -22 64 7 17 17 18 40 1z m130 7 c11 -4 16 -19 16
-43 0 -20 5 -42 12 -49 9 -9 8 -12 -7 -12 -36 1 -55 24 -55 69 0 41 5 46 34
35z m-754 -18 c0 -8 -4 -18 -10 -21 -5 -3 -10 3 -10 14 0 12 5 21 10 21 6 0
10 -6 10 -14z m850 -17 c0 -17 -4 -28 -10 -24 -5 3 -10 17 -10 31 0 13 5 24
10 24 6 0 10 -14 10 -31z m13206 -6 c-7 -17 -8 -17 -22 1 -11 16 -11 21 -2 27
18 11 32 -6 24 -28z m159 21 c22 -23 14 -38 -23 -42 -34 -3 -39 6 -22 39 13
23 24 24 45 3z m335 -9 c0 -16 -6 -25 -15 -25 -15 0 -21 31 -8 43 13 14 23 6
23 -18z m186 14 c3 -6 1 -16 -5 -22 -9 -9 -14 -8 -21 3 -9 15 -4 30 10 30 5 0
12 -5 16 -11z m-3970 -15 c-3 -9 -6 -23 -6 -32 0 -10 -3 -13 -10 -6 -11 11 -2
54 12 54 6 0 7 -7 4 -16z m2934 -10 c0 -27 -14 -25 -30 7 -9 16 -7 19 10 19
15 0 20 -7 20 -26z m140 9 c31 -15 32 -17 14 -30 -27 -20 -49 -12 -52 20 -4
32 -4 32 38 10z m96 -8 l37 -25 -41 0 c-43 0 -58 11 -48 35 7 20 9 19 52 -10z
m564 4 c13 -24 12 -26 -15 -31 -11 -2 -20 2 -19 10 3 36 5 42 14 42 5 0 14 -9
20 -21z m178 -5 c2 -13 -4 -24 -14 -28 -23 -9 -35 4 -27 32 7 29 37 25 41 -4z
m170 4 c-3 -24 -35 -35 -65 -24 -14 6 -14 9 2 26 10 11 29 20 42 20 20 0 24
-4 21 -22z m-1238 -19 c0 -5 -7 -9 -15 -9 -9 0 -15 9 -15 21 0 18 2 19 15 9 8
-7 15 -16 15 -21z m-90 0 c0 -5 -9 -9 -20 -9 -11 0 -20 6 -20 14 0 9 7 12 20
9 11 -3 20 -9 20 -14z m850 6 c0 -8 -7 -15 -15 -15 -26 0 -18 20 13 29 1 1 2
-6 2 -14z m-14273 -47 c-2 -13 -4 -5 -4 17 -1 22 1 32 4 23 2 -10 2 -28 0 -40z
m10563 43 c0 -6 -4 -13 -10 -16 -5 -3 -10 1 -10 9 0 9 5 16 10 16 6 0 10 -4
10 -9z m-10105 -40 c19 -8 19 -8 -2 -15 -24 -8 -43 -1 -43 15 0 11 17 11 45 0z
m7236 -4 c-1 -12 -15 -9 -19 4 -3 6 1 10 8 8 6 -3 11 -8 11 -12z m3042 -12
c-7 -21 -13 -19 -13 6 0 11 4 18 10 14 5 -3 7 -12 3 -20z m-10846 -7 c-3 -8
-6 -5 -6 6 -1 11 2 17 5 13 3 -3 4 -12 1 -19z m713 18 c0 -9 -40 -13 -46 -5
-3 5 6 9 20 9 14 0 26 -2 26 -4z m216 -5 c-5 -8 -56 -3 -56 5 0 2 14 4 31 4
16 0 28 -4 25 -9z m9707 -11 c-3 -11 -7 -20 -9 -20 -2 0 -4 9 -4 20 0 11 4 20
9 20 5 0 7 -9 4 -20z m107 8 c0 -7 -5 -20 -10 -28 -8 -12 -10 -9 -10 13 0 15
5 27 10 27 6 0 10 -6 10 -12z m4583 -10 c38 -36 40 -65 9 -120 -25 -46 -26
-50 -9 -62 32 -24 20 -37 -30 -34 -62 4 -67 27 -18 90 46 61 48 111 4 87 -31
-16 -38 19 -8 42 29 23 24 23 52 -3z m236 -12 c9 -11 11 -31 6 -66 -5 -33 -3
-55 5 -65 9 -10 8 -21 -5 -44 -19 -37 -55 -41 -85 -11 -21 21 -27 65 -10 75 7
4 7 12 0 25 -19 35 -12 73 17 96 29 23 47 20 72 -10z m144 -5 c6 -14 11 -27
12 -28 0 -1 12 -4 26 -8 23 -6 27 -3 33 19 9 38 41 51 70 29 14 -10 27 -27 30
-38 11 -39 6 -101 -12 -135 -14 -28 -23 -35 -47 -35 -24 0 -31 5 -33 23 -4 25
-54 52 -60 33 -10 -29 -46 -62 -66 -59 -17 3 -21 9 -18 38 1 20 -3 39 -10 45
-21 16 -38 63 -30 82 13 32 56 69 75 64 10 -2 24 -16 30 -30z m-4896 -33 c-3
-7 -5 -2 -5 12 0 14 2 19 5 13 2 -7 2 -19 0 -25z m-107 -14 c0 -14 -4 -23 -9
-20 -5 3 -7 15 -4 26 7 28 13 25 13 -6z m73 -59 c-7 -21 -13 -19 -13 6 0 11 4
18 10 14 5 -3 7 -12 3 -20z m-103 -9 c0 -14 -4 -28 -10 -31 -6 -4 -10 7 -10
24 0 17 5 31 10 31 6 0 10 -11 10 -24z m2905 14 c3 -5 1 -10 -4 -10 -6 0 -11
5 -11 10 0 6 2 10 4 10 3 0 8 -4 11 -10z m279 -11 c28 -22 27 -39 -4 -39 -11
0 -25 13 -34 30 -18 37 -2 41 38 9z m74 10 c-2 -6 -8 -10 -13 -10 -5 0 -11 4
-13 10 -2 6 4 11 13 11 9 0 15 -5 13 -11z m394 -6 c55 -24 48 -49 -12 -45 -59
5 -70 12 -59 40 10 26 20 27 71 5z m278 3 c0 -8 -4 -18 -10 -21 -5 -3 -10 3
-10 14 0 12 5 21 10 21 6 0 10 -6 10 -14z m-913 -15 c17 9 26 9 38 -1 8 -7 12
-16 9 -21 -7 -12 -125 -11 -144 1 -25 16 7 30 44 19 21 -6 38 -6 53 2z m381
-14 c3 -14 -4 -17 -41 -17 -72 0 -89 11 -36 26 56 15 73 13 77 -9z m160 1 c3
-15 -4 -18 -32 -18 -38 0 -44 8 -24 28 17 17 52 11 56 -10z m233 11 c49 -15
41 -29 -16 -29 -44 0 -62 11 -50 30 8 13 19 13 66 -1z m214 -8 c3 -10 1 -29
-4 -42 l-9 -24 -11 27 c-11 28 -6 58 9 58 5 0 11 -8 15 -19z m-1150 0 c7 -12
-31 -25 -45 -16 -6 4 -8 11 -5 16 8 12 42 12 50 0z m-2688 -48 c-3 -10 -5 -4
-5 12 0 17 2 24 5 18 2 -7 2 -21 0 -30z m-101 1 c-4 -9 -9 -15 -11 -12 -3 3
-3 13 1 22 4 9 9 15 11 12 3 -3 3 -13 -1 -22z m-5506 -48 c11 -35 11 -41 -6
-53 -15 -11 -20 -11 -32 1 -13 12 -13 21 -1 60 15 51 21 49 39 -8z m3078 13
c2 -19 8 -39 13 -46 7 -8 4 -13 -11 -18 -36 -11 -51 22 -35 78 10 37 29 29 33
-14z m2319 19 c-3 -8 -6 -5 -6 6 -1 11 2 17 5 13 3 -3 4 -12 1 -19z m-5330 6
c-3 -3 -12 -4 -19 -1 -8 3 -5 6 6 6 11 1 17 -2 13 -5z m489 -16 c-3 -13 -6
-32 -7 -43 0 -19 -1 -19 -8 -1 -9 24 -2 66 11 66 6 0 8 -10 4 -22z m1234 -5
c0 -22 -2 -25 -10 -13 -13 20 -13 40 0 40 6 0 10 -12 10 -27z m600 17 c0 -5
-2 -10 -4 -10 -3 0 -8 5 -11 10 -3 6 -1 10 4 10 6 0 11 -4 11 -10z m-2970 -31
c0 -5 -4 -9 -10 -9 -5 0 -10 7 -10 16 0 8 5 12 10 9 6 -3 10 -10 10 -16z
m2483 9 c5 -18 -3 -48 -14 -48 -5 0 -9 14 -9 30 0 30 15 41 23 18z m597 -8 c0
-11 -4 -20 -10 -20 -5 0 -10 9 -10 20 0 11 5 20 10 20 6 0 10 -9 10 -20z
m-1280 -20 l0 -29 -23 22 c-14 14 -18 25 -12 29 21 16 35 7 35 -22z m4356 3
c-10 -10 -19 5 -10 18 6 11 8 11 12 0 2 -7 1 -15 -2 -18z m-4959 -5 c-3 -8 -6
-5 -6 6 -1 11 2 17 5 13 3 -3 4 -12 1 -19z m4850 -15 c-3 -10 -5 -4 -5 12 0
17 2 24 5 18 2 -7 2 -21 0 -30z m390 -25 c-3 -7 -5 -2 -5 12 0 14 2 19 5 13 2
-7 2 -19 0 -25z m218 2 c-5 -8 -11 -8 -17 -2 -6 6 -7 16 -3 22 5 8 11 8 17 2
6 -6 7 -16 3 -22z m101 3 c-10 -10 -19 5 -10 18 6 11 8 11 12 0 2 -7 1 -15 -2
-18z m-3006 7 c0 -5 -5 -10 -11 -10 -5 0 -7 5 -4 10 3 6 8 10 11 10 2 0 4 -4
4 -10z m2590 -2 c0 -7 -5 -20 -10 -28 -8 -12 -10 -9 -10 13 0 15 5 27 10 27 6
0 10 -6 10 -12z m210 -3 c0 -8 -4 -15 -10 -15 -5 0 -10 7 -10 15 0 8 5 15 10
15 6 0 10 -7 10 -15z m-324 -43 c-12 -11 -18 7 -10 30 l8 23 4 -23 c2 -13 1
-26 -2 -30z m606 18 c-2 -16 -8 -30 -13 -30 -10 0 -11 7 -3 38 9 33 21 27 16
-8z m-715 -12 c-3 -7 -5 -2 -5 12 0 14 2 19 5 13 2 -7 2 -19 0 -25z m-101 -15
c-11 -11 -19 6 -11 24 8 17 8 17 12 0 3 -10 2 -21 -1 -24z m714 25 c0 -7 -5
-20 -10 -28 -8 -12 -10 -9 -10 13 0 15 5 27 10 27 6 0 10 -6 10 -12z m-114
-35 c-11 -11 -19 6 -11 24 8 17 8 17 12 0 3 -10 2 -21 -1 -24z m-106 2 c0 -14
-4 -25 -9 -25 -4 0 -6 11 -3 25 2 14 6 25 8 25 2 0 4 -11 4 -25z m-210 -22 c0
-20 -3 -24 -11 -16 -7 7 -9 19 -6 27 10 24 17 19 17 -11z m103 12 c4 -8 2 -17
-3 -20 -6 -4 -10 3 -10 14 0 25 6 27 13 6z m-211 -27 c-9 -9 -12 -7 -12 12 0
19 3 21 12 12 9 -9 9 -15 0 -24z m599 -11 c-8 -8 -11 -5 -11 9 0 27 14 41 18
19 2 -9 -1 -22 -7 -28z m-811 2 c0 -16 -4 -28 -9 -25 -8 5 -3 56 5 56 2 0 4
-14 4 -31z m110 22 c0 -6 -4 -13 -10 -16 -5 -3 -10 1 -10 9 0 9 5 16 10 16 6
0 10 -4 10 -9z m597 -28 c-3 -10 -5 -4 -5 12 0 17 2 24 5 18 2 -7 2 -21 0 -30z
m-110 -15 c-3 -7 -5 -2 -5 12 0 14 2 19 5 13 2 -7 2 -19 0 -25z m-210 -10 c-3
-8 -6 -5 -6 6 -1 11 2 17 5 13 3 -3 4 -12 1 -19z m-110 -25 c-3 -10 -5 -4 -5
12 0 17 2 24 5 18 2 -7 2 -21 0 -30z m-210 -15 c-3 -7 -5 -2 -5 12 0 14 2 19
5 13 2 -7 2 -19 0 -25z m113 12 c0 -5 -5 -10 -11 -10 -5 0 -7 5 -4 10 3 6 8
10 11 10 2 0 4 -4 4 -10z m487 -22 c-3 -7 -5 -2 -5 12 0 14 2 19 5 13 2 -7 2
-19 0 -25z m-210 -15 c-3 -10 -5 -4 -5 12 0 17 2 24 5 18 2 -7 2 -21 0 -30z
m-110 -15 c-3 -8 -6 -5 -6 6 -1 11 2 17 5 13 3 -3 4 -12 1 -19z m506 -8 c-7
-28 -13 -25 -13 6 0 14 4 23 9 20 5 -3 7 -15 4 -26z m-822 -11 c-9 -22 -10
-22 -10 -3 -1 11 2 24 6 27 12 12 14 0 4 -24z m106 9 c-3 -8 -6 -5 -6 6 -1 11
2 17 5 13 3 -3 4 -12 1 -19z m612 15 c0 -5 -4 -17 -9 -28 -8 -18 -9 -17 -9 8
-1 15 4 27 9 27 6 0 10 -3 9 -7z m-109 -23 c0 -11 -4 -20 -9 -20 -5 0 -7 9 -4
20 3 11 7 20 9 20 2 0 4 -9 4 -20z m-113 -22 c-3 -7 -5 -2 -5 12 0 14 2 19 5
13 2 -7 2 -19 0 -25z m-197 8 c0 -3 -4 -8 -10 -11 -5 -3 -10 -1 -10 4 0 6 5
11 10 11 6 0 10 -2 10 -4z m-10997 -93 c-7 -2 -19 -2 -25 0 -7 3 -2 5 12 5 14
0 19 -2 13 -5z m10079 -118 c37 -1 71 -5 75 -9 11 -11 -18 -26 -52 -26 -16 -1
-51 -3 -77 -5 -54 -5 -80 13 -58 40 8 9 20 13 29 9 9 -4 46 -7 83 -9z m994 -2
c20 1 29 -3 32 -17 6 -27 -13 -42 -33 -26 -13 11 -19 10 -36 -9 -23 -25 -34
-21 -43 15 -9 33 9 57 34 44 9 -5 30 -8 46 -7z m342 6 c29 1 62 -1 73 -4 19
-6 19 -8 4 -25 -13 -14 -29 -18 -68 -16 -29 2 -60 -1 -70 -6 -22 -11 -47 6
-47 32 0 21 18 31 40 23 8 -3 39 -5 68 -4z m-1843 -19 c0 -10 -8 -14 -23 -12
-13 2 -32 -4 -41 -12 -17 -15 -19 -15 -31 -1 -14 17 -63 13 -87 -7 -10 -8 -13
-4 -13 15 0 32 13 35 115 34 64 -2 80 -5 80 -17z m190 -5 c0 -16 -6 -20 -30
-19 -16 0 -35 -6 -41 -14 -16 -21 -44 -7 -44 21 0 32 3 34 63 33 45 -1 52 -4
52 -21z m123 8 c2 -7 -2 -13 -10 -13 -7 0 -26 -7 -42 -15 -15 -8 -32 -12 -37
-9 -13 8 -11 42 4 48 22 9 80 1 85 -11z m1032 2 c0 -9 -9 -15 -22 -15 -12 0
-29 -7 -39 -16 -14 -13 -22 -13 -39 -4 -12 7 -38 10 -56 8 -27 -3 -34 0 -34
13 0 24 13 27 108 28 67 1 82 -2 82 -14z m317 -2 c3 -7 -8 -15 -24 -18 -15 -4
-35 -10 -45 -15 -15 -9 -28 5 -28 30 0 21 91 23 97 3z m-10399 -38 c12 -26 37
-34 44 -14 6 18 75 38 87 26 23 -23 11 -37 -30 -37 l-41 0 6 -35 c9 -45 -14
-57 -48 -26 -26 25 -44 27 -52 6 -4 -9 -19 -15 -38 -15 -22 0 -27 3 -17 9 9 6
14 24 13 45 -1 29 4 38 26 50 36 20 37 20 50 -9z m485 -16 c-3 -10 -9 -16 -14
-13 -11 6 -12 38 -2 47 10 11 21 -13 16 -34z m79 -28 c0 -43 -8 -64 -23 -56
-10 7 -12 85 -3 110 6 16 8 16 16 1 5 -9 10 -34 10 -55z m125 37 c-3 -7 -5 -2
-5 12 0 14 2 19 5 13 2 -7 2 -19 0 -25z m-458 -33 l-1 -55 -62 0 c-59 0 -60 1
-40 18 12 9 29 31 38 49 9 18 26 33 38 36 13 2 24 5 25 6 1 0 2 -24 2 -54z
m-385 -3 c-4 -17 -10 -29 -15 -26 -11 6 -12 58 -2 67 13 14 23 -10 17 -41z
m486 35 c-9 -7 -21 -23 -27 -37 l-12 -25 0 32 c-1 22 4 33 17 36 31 8 37 7 22
-6z m559 -8 c-6 -12 -8 -34 -5 -50 4 -24 2 -29 -13 -29 -25 0 -41 21 -48 64
l-6 36 42 0 c39 0 41 -1 30 -21z m135 5 c19 5 26 1 31 -14 3 -11 4 -29 0 -40
-5 -16 -10 -17 -30 -8 -18 8 -28 8 -39 -1 -18 -15 -28 8 -19 49 4 24 8 28 19
19 8 -6 25 -8 38 -5z m-254 -69 c10 -12 10 -15 -4 -15 -9 0 -16 7 -16 15 0 8
2 15 4 15 2 0 9 -7 16 -15z m-1029 -8 c-1 -12 -15 -9 -19 4 -3 6 1 10 8 8 6
-3 11 -8 11 -12z m631 -9 c-9 -9 -15 -9 -24 0 -9 9 -7 12 12 12 19 0 21 -3 12
-12z m-1022 -29 c0 -10 -4 -19 -10 -19 -5 0 -10 12 -10 26 0 14 4 23 10 19 6
-3 10 -15 10 -26z m9205 -32 c-7 -27 -32 -38 -65 -30 -24 6 -25 12 -5 40 15
22 53 34 68 22 4 -3 5 -18 2 -32z m252 -1 c-21 -31 -73 -33 -97 -4 -18 22 -19
23 -26 3 -12 -33 -36 -43 -62 -27 -10 7 -10 15 -2 36 10 28 11 28 78 22 38 -4
73 -2 82 3 9 7 19 6 27 -1 11 -9 11 -15 0 -32z m1097 29 c9 -24 -35 -66 -61
-59 -37 10 -27 45 17 63 34 13 37 13 44 -4z m250 -3 c3 -5 3 -18 0 -29 -8 -31
-44 -36 -76 -13 -34 25 -40 25 -56 0 -15 -24 -50 -26 -59 -3 -12 32 32 53 113
53 40 0 75 -4 78 -8z m-6899 -151 c15 -11 33 -21 40 -21 7 0 15 -6 18 -14 4
-10 40 -15 139 -19 108 -4 159 -12 272 -41 155 -40 176 -42 236 -21 79 28 137
15 206 -48 22 -19 45 -32 52 -29 8 2 12 -2 10 -10 -2 -8 21 -56 51 -106 47
-80 56 -90 72 -81 14 7 28 5 50 -7 24 -12 37 -13 54 -6 27 12 67 4 62 -12 -2
-7 -35 -11 -85 -12 -45 0 -84 -3 -87 -6 -3 -2 0 -20 5 -39 16 -53 12 -156 -6
-192 -21 -42 -52 -75 -86 -93 -33 -17 -113 -18 -150 -1 -32 14 -125 88 -218
174 -77 70 -178 125 -262 143 -75 15 -102 7 -93 -27 3 -14 3 -63 -1 -110 -6
-74 -10 -86 -28 -93 -13 -5 -26 -3 -36 5 -8 7 -26 15 -40 17 -23 3 -25 8 -30
73 -5 66 -6 68 -18 42 -15 -35 -15 -57 -1 -94 24 -64 90 -110 217 -153 82 -27
94 -29 168 -21 77 9 130 1 91 -14 -9 -4 -27 -5 -40 -2 -12 3 -30 2 -40 -2 -12
-4 15 -18 90 -45 183 -66 266 -115 371 -218 104 -103 162 -245 162 -399 0
-205 -84 -379 -247 -515 -262 -217 -651 -279 -1143 -183 -58 11 -159 22 -225
24 -66 2 -127 4 -136 4 -9 1 -24 12 -33 26 -15 23 -15 27 0 49 8 14 22 26 29
28 10 2 2 21 -25 66 -46 77 -84 189 -105 307 -27 155 -17 224 40 274 32 28 39
30 114 29 54 0 84 -4 91 -13 9 -11 17 -11 45 1 19 8 67 14 106 14 l72 0 -87
62 c-125 88 -227 201 -275 302 -46 96 -61 160 -61 264 0 96 19 175 67 272 66
135 234 279 410 352 46 19 53 25 53 50 0 22 4 27 21 25 30 -3 35 20 7 28 -26
9 -39 25 -31 38 3 5 36 7 74 5 48 -4 75 -11 94 -27z m2682 2 c50 -21 85 -45
132 -90 35 -35 67 -63 71 -63 5 0 22 11 38 25 17 14 57 38 89 53 51 24 70 27
159 27 96 0 103 -2 175 -37 98 -50 176 -120 250 -229 51 -74 66 -89 88 -89 14
0 33 -5 41 -10 12 -8 11 -10 -8 -10 -37 0 -35 -23 5 -89 21 -35 73 -131 117
-215 67 -128 147 -296 458 -959 41 -87 42 -88 55 -63 16 31 57 35 72 7 15 -27
-5 -81 -30 -81 -54 0 8 -51 90 -74 75 -21 101 -50 101 -113 0 -126 -117 -183
-414 -204 -254 -18 -680 10 -754 50 -11 6 -23 7 -27 3 -4 -4 -138 -7 -298 -7
-259 0 -298 -2 -347 -19 -69 -23 -413 -34 -541 -17 -144 19 -209 67 -209 153
0 67 17 87 115 134 101 48 150 89 121 100 -10 4 -42 4 -72 1 -47 -5 -55 -3
-64 14 -6 11 -8 35 -4 54 l6 34 112 3 111 3 49 97 c27 54 47 100 45 102 -9 9
-268 36 -284 30 -8 -4 -22 -1 -30 6 -31 26 -7 97 27 79 12 -6 32 -6 56 0 39
10 150 20 239 23 42 1 56 6 66 22 7 12 51 104 96 206 67 147 82 191 78 217 -5
27 -1 36 22 52 57 41 131 291 131 441 0 68 -15 130 -31 130 -5 0 -9 6 -9 14 0
7 -7 20 -16 27 -9 7 -19 21 -23 30 -3 10 -33 38 -65 63 -44 34 -68 46 -93 46
-41 0 -52 22 -48 95 1 28 3 51 4 53 6 11 94 -3 148 -25z m7500 -98 l152 -39
54 17 c104 33 166 16 243 -65 47 -49 114 -148 133 -195 15 -37 31 -44 31 -14
0 11 5 32 10 47 10 25 12 26 29 10 16 -15 21 -15 55 -1 25 11 42 13 54 6 10
-6 23 -6 35 1 14 7 23 6 34 -5 14 -13 19 -13 50 0 31 12 38 12 59 -2 24 -16
28 -25 24 -60 -4 -39 -53 -47 -91 -16 -22 18 -23 18 -38 0 -15 -18 -22 -18
-79 -8 -48 9 -70 9 -89 0 -14 -6 -34 -9 -44 -6 -22 7 -22 9 -9 -35 6 -19 11
-65 12 -102 l0 -68 79 0 c69 0 80 -2 90 -21 17 -33 0 -40 -103 -42 -88 -2 -96
-4 -124 -31 -38 -36 -65 -46 -127 -46 -65 0 -94 17 -222 130 -176 155 -266
202 -390 203 -215 2 -267 -201 -76 -298 25 -12 123 -46 216 -75 198 -61 277
-91 359 -138 112 -63 194 -139 268 -250 14 -21 17 -22 20 -6 3 16 15 18 91 20
48 0 90 4 94 7 3 4 14 2 24 -4 39 -20 13 -111 -27 -94 -22 9 -150 13 -158 5
-3 -3 1 -33 9 -65 8 -33 14 -83 15 -110 l0 -50 61 0 c56 0 62 -2 71 -24 12
-32 -3 -41 -73 -41 -60 0 -69 -7 -69 -54 0 -31 8 -36 36 -26 29 11 50 4 59
-18 10 -26 -24 -44 -71 -39 l-41 4 -31 -66 c-17 -37 -47 -88 -67 -113 -19 -26
-35 -49 -35 -52 0 -2 32 -4 71 -3 60 2 73 -1 85 -17 12 -17 14 -17 14 -4 0 37
99 33 134 -4 l23 -26 -26 -15 c-21 -12 -29 -13 -43 -3 -11 8 -45 11 -100 9
-46 -1 -117 -3 -158 -4 -72 -2 -78 -4 -145 -49 -92 -63 -152 -92 -253 -124
-250 -79 -588 -77 -909 4 -143 36 -228 75 -279 128 l-40 41 -79 -3 c-87 -3
-105 4 -105 40 0 30 32 39 104 30 l53 -6 -40 120 c-22 66 -43 117 -48 115 -4
-3 -15 5 -24 17 -13 20 -17 21 -25 8 -5 -8 -10 -20 -10 -26 0 -7 -18 -11 -46
-10 -36 1 -50 6 -58 21 -6 11 -12 22 -14 24 -1 3 -10 -6 -19 -18 -13 -19 -22
-22 -51 -17 -26 4 -41 1 -55 -12 -18 -16 -20 -16 -33 3 -8 11 -14 34 -12 50 1
17 -1 35 -5 41 -3 6 -7 88 -8 183 l-1 171 -42 -26 c-104 -64 -205 -100 -346
-121 -89 -14 -129 -14 -263 -5 -114 8 -165 9 -179 1 -19 -10 -20 -17 -13 -172
3 -89 11 -178 16 -197 10 -41 41 -72 117 -119 68 -43 92 -74 92 -122 0 -73
-79 -130 -230 -164 -111 -25 -409 -37 -547 -22 -108 12 -112 12 -117 -7 -5
-18 -6 -19 -23 -4 -13 12 -23 14 -35 7 -14 -8 -19 -5 -24 15 -4 17 -20 32 -48
46 -61 29 -97 70 -103 119 -7 54 11 80 88 127 l62 38 -6 90 c-6 89 8 156 32
156 5 0 17 7 25 16 14 14 16 74 16 517 0 276 -5 531 -10 567 -11 77 -31 99
-112 125 -114 37 -165 93 -153 166 8 46 56 93 112 108 23 7 162 11 348 11 235
0 369 5 555 22 272 23 405 18 544 -22 97 -28 222 -92 283 -145 32 -28 57 -43
67 -39 14 5 14 8 -1 30 -22 35 -8 42 65 36 70 -5 78 -12 68 -67 -9 -44 -38
-62 -74 -46 -36 17 -38 6 -9 -36 107 -155 137 -394 72 -575 -35 -97 -35 -100
-2 -105 33 -5 92 -40 124 -74 32 -36 42 -69 49 -174 l7 -94 30 16 c40 20 98
12 140 -20 18 -14 60 -63 92 -110 l60 -86 3 152 3 151 -48 40 c-197 165 -290
370 -262 574 33 233 176 416 424 539 140 70 259 93 455 89 130 -2 161 -6 297
-41z m-11385 20 c224 -29 324 -72 354 -150 14 -38 15 -49 3 -87 -13 -38 -23
-48 -99 -94 -59 -36 -90 -62 -102 -86 -22 -42 -37 -278 -38 -578 -1 -285 -16
-520 -40 -618 -64 -265 -236 -424 -541 -502 -343 -88 -810 9 -1007 210 -54 55
-107 153 -123 232 -16 74 -7 193 20 255 26 60 111 146 168 169 132 55 304 24
398 -73 77 -79 92 -146 70 -309 -7 -58 -6 -62 22 -94 25 -28 38 -34 85 -38
107 -9 184 58 224 194 15 53 16 102 11 499 -9 643 -15 670 -146 709 -69 20
-97 38 -117 78 -37 72 5 167 95 212 148 75 490 107 763 71z m7238 -5 c275 -34
491 -168 591 -365 89 -177 90 -403 3 -581 -80 -163 -249 -294 -457 -355 l-76
-22 2 -126 c3 -158 -12 -666 -19 -686 -4 -8 -14 -15 -23 -15 -31 -1 64 -33
112 -37 29 -3 47 -10 47 -18 0 -19 -28 -27 -51 -14 -13 7 -24 7 -32 1 -9 -7
-644 -10 -732 -3 -5 1 -46 -1 -90 -4 -102 -8 -125 -2 -125 30 0 32 39 43 94
25 69 -21 144 -24 171 -6 30 20 92 20 125 1 33 -19 110 -19 146 0 38 19 108
19 124 0 17 -20 109 -20 136 0 10 8 28 15 39 15 18 1 18 2 -2 10 -23 9 -23 12
-23 177 0 92 -3 272 -7 399 l-6 230 -180 11 c-99 6 -186 9 -193 6 -18 -7 -20
-29 -13 -203 7 -178 18 -215 75 -254 21 -14 42 -26 46 -26 3 0 4 48 2 108 -5
96 -3 110 15 140 25 39 52 41 82 5 21 -28 22 -31 16 -292 -6 -246 -8 -266 -26
-284 -19 -19 -21 -19 -45 -3 -18 11 -26 25 -26 45 l0 29 -75 -24 c-42 -13 -81
-24 -88 -24 -7 0 -20 -9 -30 -21 -13 -15 -23 -18 -40 -12 -22 8 -149 10 -242
4 -74 -5 -279 17 -369 39 -86 21 -156 57 -181 92 -20 30 -19 107 3 134 9 12
43 36 74 54 91 50 105 73 113 182 3 51 5 350 3 665 -4 668 8 607 -124 659 -43
17 -94 45 -111 61 -29 27 -33 36 -33 83 0 46 4 56 33 85 18 18 51 38 72 44 25
7 162 11 365 12 230 0 380 6 515 18 231 22 305 24 415 11z m-2166 -137 c8 -20
-1 -33 -25 -33 -13 0 -19 7 -19 23 0 13 3 26 6 30 9 9 32 -3 38 -20z m-2760
-2 c17 -18 16 -20 -3 -26 -28 -8 -40 1 -34 25 7 25 15 25 37 1z m2499 -1 c4
-15 0 -20 -14 -20 -21 0 -22 1 -13 24 8 22 21 20 27 -4z m-2383 -5 c0 -8 -7
-15 -16 -15 -14 0 -14 3 -4 15 7 8 14 15 16 15 2 0 4 -7 4 -15z m120 0 c10
-12 10 -15 -4 -15 -9 0 -16 7 -16 15 0 8 2 15 4 15 2 0 9 -7 16 -15z m2640 -5
c0 -5 -5 -10 -11 -10 -5 0 -7 5 -4 10 3 6 8 10 11 10 2 0 4 -4 4 -10z m4904 2
c8 -13 -14 -83 -24 -77 -12 7 -23 62 -15 75 8 12 32 13 39 2z m-5217 -8 c-3
-3 -12 -4 -19 -1 -8 3 -5 6 6 6 11 1 17 -2 13 -5z m7884 -105 c21 -21 19 -51
-7 -79 -11 -11 -22 -12 -53 -4 -24 7 -46 7 -55 2 -20 -11 -35 -3 -46 26 -8 20
-8 20 -19 -6 -13 -35 -25 -35 -64 -2 l-31 26 -14 -21 c-20 -30 -60 -28 -72 5
-7 17 -7 32 0 45 9 16 21 19 91 18 60 -1 82 -5 86 -15 6 -16 56 -11 108 12 41
18 52 17 76 -7z m-7599 -61 c31 1 60 -3 63 -8 7 -11 9 -11 -95 -15 -41 -1 -90
0 -109 3 -32 5 -33 6 -15 19 14 10 30 12 59 7 22 -4 66 -6 97 -6z m-1417 -128
c0 -64 -3 -75 -18 -78 -10 -2 -25 2 -33 9 -13 11 -12 15 12 34 l26 21 -21 39
c-27 51 -27 57 7 53 27 -3 27 -4 27 -78z m80 61 c3 -10 15 -21 26 -24 11 -3
23 -15 26 -26 3 -12 14 -21 24 -21 19 0 36 -40 25 -59 -10 -16 -35 -2 -38 22
-2 14 -11 23 -25 25 -13 2 -23 9 -23 16 0 7 -12 18 -26 25 -17 8 -24 17 -20
27 3 9 6 20 6 25 0 17 19 9 25 -10z m-190 -13 c3 -13 7 -43 8 -68 2 -41 0 -45
-23 -48 -17 -3 -31 4 -46 23 l-22 28 21 36 c33 56 53 65 62 29z m-6506 -68
c-30 -4 -44 -11 -50 -25 -4 -11 -8 -15 -8 -8 -2 26 12 43 35 43 14 0 27 7 31
16 6 15 8 15 20 -2 13 -18 11 -19 -28 -24z m101 -16 c0 -28 -15 -25 -23 6 -3
13 0 20 9 20 8 0 14 -10 14 -26z m570 -24 c0 -5 -4 -10 -10 -10 -5 0 -10 5
-10 10 0 6 5 10 10 10 6 0 10 -4 10 -10z m429 -55 c1 -46 -24 -75 -63 -75 -39
0 -53 14 -62 58 -11 56 31 83 56 36 l14 -25 19 38 c18 34 21 36 28 18 4 -11 8
-34 8 -50z m497 28 l15 -38 15 28 c17 31 39 35 53 9 12 -23 -13 -78 -45 -99
-19 -12 -24 -12 -40 4 -10 10 -27 18 -38 18 -31 0 -35 66 -7 94 12 12 23 21
26 21 3 0 12 -17 21 -37z m2984 -10 c0 -7 -9 -13 -20 -13 -14 0 -20 7 -20 23
0 13 3 27 7 31 9 8 33 -22 33 -41z m85 23 c27 -22 28 -25 12 -32 -10 -3 -31
-3 -46 2 -25 8 -27 12 -20 32 11 28 17 28 54 -2z m-3758 -53 c-3 -2 -20 -5
-38 -5 -19 -1 -38 -7 -44 -13 -5 -7 -31 -15 -57 -18 -50 -5 -58 2 -58 48 0 28
48 42 66 19 13 -16 44 -19 44 -4 0 6 13 10 29 10 16 0 35 8 42 17 13 15 14 13
17 -16 2 -18 1 -35 -1 -38z m466 15 c-7 -13 -48 -9 -69 6 -21 16 -13 22 36 28
24 3 43 -17 33 -34z m73 -20 c-8 -28 -75 -73 -89 -59 -6 6 3 21 26 43 19 19
38 45 42 58 l8 25 10 -22 c5 -12 7 -32 3 -45z m6560 51 c7 -12 -15 -31 -28
-23 -9 6 1 34 12 34 5 0 12 -5 16 -11z m-8084 -34 c-12 -22 -27 -2 -18 22 5
12 10 13 17 6 7 -7 8 -17 1 -28z m1321 18 c2 -10 8 -25 11 -33 7 -17 -47 -55
-64 -45 -11 7 -14 78 -3 88 13 14 51 7 56 -10z m4007 2 c0 -8 -9 -15 -20 -15
-20 0 -26 11 -13 23 12 13 33 7 33 -8z m-5120 -17 c0 -18 -2 -20 -9 -8 -6 8
-7 18 -5 22 9 14 14 9 14 -14z m499 -15 c-1 -38 -1 -38 -9 -9 -8 27 -6 46 6
46 2 0 4 -17 3 -37z m14718 -16 c-5 -16 -51 -26 -130 -27 -91 -2 -88 -2 -111
15 -18 14 -18 15 5 34 27 22 92 26 121 8 13 -8 25 -7 50 5 32 16 34 15 51 -4
10 -12 16 -26 14 -31z m244 22 c12 -19 11 -26 -3 -36 -22 -13 -157 -11 -196 3
-20 7 -29 13 -20 14 10 0 24 10 32 23 14 21 20 22 96 16 54 -4 85 -10 91 -20z
m139 5 c12 -31 8 -40 -26 -48 -45 -12 -70 26 -38 58 24 24 53 20 64 -10z
m-14830 -59 c11 -13 7 -15 -30 -15 -37 0 -41 2 -30 15 7 8 20 15 30 15 10 0
23 -7 30 -15z m-339 -8 c-1 -12 -15 -9 -19 4 -3 6 1 10 8 8 6 -3 11 -8 11 -12z
m-602 -42 c0 -5 -4 -3 -9 5 -5 8 -9 22 -9 30 0 16 17 -16 18 -35z m734 38 c-7
-2 -19 -2 -25 0 -7 3 -2 5 12 5 14 0 19 -2 13 -5z m827 3 c0 -2 -11 -6 -25 -8
-14 -3 -25 -1 -25 3 0 5 11 9 25 9 14 0 25 -2 25 -4z m-1430 -40 c0 -2 -9 -6
-20 -9 -11 -3 -18 -1 -14 4 5 9 34 13 34 5z m14913 -47 c6 -9 7 -24 4 -33 -6
-14 -19 -17 -74 -15 -38 2 -80 -1 -95 -5 -24 -7 -29 -4 -39 18 -20 43 -2 53
102 52 73 -1 94 -4 102 -17z m324 12 c20 -6 35 -6 38 0 8 12 244 7 254 -6 5
-5 5 -20 0 -33 -9 -25 -5 -24 -169 -22 -50 1 -69 5 -81 19 -15 18 -16 18 -27
0 -9 -14 -24 -19 -60 -19 -26 0 -53 5 -58 10 -7 7 -20 6 -40 -5 -37 -19 -36
-19 -69 11 -16 15 -24 29 -19 34 5 5 43 11 84 13 41 1 84 4 95 5 11 1 35 -2
52 -7z m-104 -428 c7 -36 -26 -67 -61 -58 -39 10 -52 24 -52 56 0 24 5 30 33
37 41 11 74 -3 80 -35z m400 35 c27 -21 31 -61 8 -82 -18 -16 -26 -17 -66 -7
-25 6 -51 9 -56 5 -6 -3 -19 2 -29 11 -17 16 -19 15 -36 -10 -17 -26 -17 -26
-38 -6 -27 25 -45 28 -78 11 -41 -20 -60 -7 -56 37 l3 38 83 1 c71 1 84 -1 96
-18 10 -13 15 -16 18 -7 2 7 29 18 59 25 74 16 73 16 92 2z m-4756 -176 c28
-18 35 -70 34 -267 -2 -374 -7 -472 -24 -499 -14 -21 -14 -26 -2 -36 22 -18
18 -39 -9 -52 -40 -17 -56 -4 -56 44 1 24 -1 95 -4 158 -4 63 -8 178 -11 255
-2 77 -7 167 -10 200 -6 66 8 169 26 191 13 15 37 18 56 6z m-5113 -35 c22
-16 18 -65 -6 -81 -38 -23 -72 29 -48 73 12 24 29 26 54 8z m2735 -1 c7 -8 11
-30 9 -48 -2 -26 -8 -34 -26 -36 -44 -7 -66 34 -42 79 13 22 43 25 59 5z
m6716 -115 c30 -6 57 -5 76 2 25 10 32 8 51 -11 12 -12 18 -25 14 -29 -11 -12
-208 -21 -228 -11 -10 5 -18 13 -18 18 0 16 40 51 50 45 5 -3 30 -9 55 -14z
m317 9 c40 0 62 -5 73 -17 16 -16 16 -17 -1 -30 -20 -15 -170 -18 -193 -4 -22
14 16 64 43 57 12 -3 47 -6 78 -6z m216 -21 c3 -22 -2 -29 -29 -38 -27 -9 -36
-9 -48 3 -12 13 -12 18 3 41 24 36 70 32 74 -6z m-5129 -3 c8 -9 11 -109 9
-347 l-3 -334 -22 -3 c-12 -2 -27 -10 -33 -18 -10 -11 -8 -14 13 -14 13 0 42
-7 62 -16 44 -18 122 -15 173 7 28 12 38 11 81 -4 61 -21 144 -23 161 -2 7 8
29 15 50 15 21 0 54 -7 73 -15 45 -19 114 -19 147 0 34 19 90 19 119 -1 13
-10 41 -16 67 -16 46 1 66 -11 36 -23 -39 -16 -236 -21 -273 -7 -16 7 -31 7
-42 0 -17 -9 -99 -12 -242 -9 -38 1 -101 2 -140 2 -38 0 -90 1 -115 2 -25 2
-79 0 -120 -3 -41 -4 -76 -6 -78 -4 -2 1 -3 176 -3 390 -1 360 1 389 17 401
23 17 49 17 63 -1z m4897 -119 c4 -4 28 -4 54 -1 35 5 49 2 59 -10 11 -13 11
-19 0 -32 -11 -14 -36 -16 -164 -14 -82 1 -157 1 -165 0 -41 -4 -213 9 -222
18 -23 23 37 36 169 37 73 1 135 4 138 7 8 8 123 4 131 -5z m-9748 -89 c28
-28 0 -93 -36 -86 -23 4 -38 63 -22 83 15 18 42 19 58 3z m7142 -224 c0 -12
-4 -25 -8 -28 -12 -7 -202 -7 -240 0 -18 4 -31 11 -29 18 2 6 12 10 22 8 9 -2
26 5 37 15 15 13 42 19 106 23 94 5 112 0 112 -36z m2329 32 c8 -9 8 -21 1
-40 -11 -29 -13 -30 -40 -16 -13 7 -21 7 -25 0 -7 -12 -25 -13 -43 -2 -9 7
-10 15 -3 35 8 20 18 27 48 30 21 2 41 4 44 5 4 1 12 -4 18 -12z m-9477 -138
c26 -22 29 -47 8 -68 -11 -11 -27 -20 -35 -20 -24 0 -38 41 -26 73 11 29 28
34 53 15z m-4597 -333 c7 -51 0 -175 -11 -185 -5 -4 -46 -22 -91 -39 -124 -47
-164 -70 -175 -102 -5 -16 -17 -31 -27 -34 -10 -3 -25 -20 -34 -38 -9 -17 -37
-63 -62 -102 -25 -39 -45 -81 -45 -97 0 -14 -7 -33 -15 -42 -8 -8 -15 -30 -15
-49 0 -19 -5 -48 -11 -65 -10 -28 -13 -30 -47 -25 -20 3 -49 12 -64 19 -15 8
-34 14 -43 14 -9 0 -30 7 -47 16 -26 13 -29 20 -25 47 10 64 49 192 63 208 8
8 14 21 14 28 0 7 14 44 31 83 34 78 120 190 195 256 27 23 58 50 69 60 11 11
47 29 80 41 33 12 65 27 71 32 6 5 42 15 80 22 84 16 101 8 109 -48z m215 39
c25 -4 56 -15 70 -24 35 -23 59 -37 102 -60 21 -11 47 -34 60 -50 12 -17 28
-30 35 -30 8 0 21 -16 29 -36 8 -20 23 -38 32 -41 28 -8 109 -115 116 -154 3
-20 17 -46 30 -58 17 -16 26 -38 31 -77 3 -29 13 -67 21 -83 18 -35 49 -388
36 -404 -5 -7 -12 -35 -16 -63 -3 -27 -15 -76 -26 -107 -11 -31 -20 -68 -20
-83 0 -16 -11 -35 -30 -52 -18 -16 -30 -36 -30 -52 0 -49 -38 -70 -74 -43 -20
15 -22 21 -13 50 8 24 7 37 -1 45 -9 9 -12 6 -12 -14 0 -34 -17 -39 -57 -15
-36 21 -40 33 -19 60 8 10 12 27 9 38 -3 12 2 29 13 42 32 37 44 65 50 115 4
26 13 58 21 71 13 19 14 49 8 172 -5 104 -11 152 -20 159 -8 6 -17 26 -20 43
-8 38 -32 94 -44 102 -5 3 -12 18 -16 34 -3 16 -15 37 -27 47 -11 11 -29 36
-39 57 -11 20 -23 37 -28 37 -5 0 -34 20 -64 45 -31 25 -61 45 -67 45 -6 0
-33 11 -61 26 -28 14 -58 24 -67 22 -36 -6 -42 10 -42 121 0 119 7 135 55 127
17 -3 50 -9 75 -12z m8041 -164 c36 -20 19 -30 -50 -30 -72 0 -103 15 -54 26
15 3 33 7 38 9 20 7 47 5 66 -5z m219 -16 c0 -11 -16 -14 -72 -14 -83 0 -123
15 -67 24 43 7 122 12 132 8 4 -2 7 -10 7 -18z m164 6 c15 -15 3 -20 -51 -21
-63 -2 -84 8 -57 28 20 15 91 10 108 -7z m125 7 c15 -19 4 -27 -36 -27 -31 0
-44 16 -26 33 11 12 50 8 62 -6z m165 -8 c15 -13 -16 -20 -78 -17 -68 4 -78
21 -16 29 48 6 79 2 94 -12z m584 10 c49 -17 28 -29 -48 -29 -98 0 -104 19
-10 33 14 3 25 5 26 6 1 0 15 -4 32 -10z m221 -5 c42 -9 8 -22 -71 -26 -85 -5
-109 1 -89 25 11 15 92 15 160 1z m160 3 c6 -8 8 -17 4 -20 -9 -10 -113 -9
-113 1 0 30 87 45 109 19z m104 -2 c7 -18 -9 -29 -30 -21 -12 5 -13 9 -3 21
16 19 26 19 33 0z m182 -3 c8 -22 3 -24 -62 -24 -81 0 -85 1 -81 14 9 26 133
35 143 10z m-1895 -107 c17 -9 30 -19 30 -24 0 -14 -50 -20 -122 -14 -49 4
-65 9 -61 19 3 9 15 11 33 7 18 -3 37 1 51 11 29 20 33 20 69 1z m112 -1 c29
-15 32 -15 43 0 19 25 37 19 33 -11 -3 -27 -4 -28 -70 -28 -74 0 -83 4 -73 34
8 25 26 26 67 5z m301 10 c27 -5 37 -11 37 -25 0 -11 -3 -19 -7 -19 -5 -1 -35
-3 -68 -6 -33 -2 -77 -2 -97 2 -38 6 -38 6 -20 30 14 19 26 23 67 24 28 0 67
-3 88 -6z m957 -4 c0 -6 12 -9 28 -8 22 2 28 -1 30 -20 l4 -23 -119 5 c-65 3
-124 5 -132 6 -11 0 -10 4 4 20 16 17 20 18 38 5 29 -20 51 -19 72 5 19 21 75
28 75 10z m245 -20 c0 -22 -5 -25 -44 -28 -50 -4 -66 7 -56 38 6 18 13 21 53
18 43 -3 47 -5 47 -28z m146 9 c16 -11 27 -25 24 -30 -7 -11 -115 -12 -132 -1
-19 12 2 36 26 29 11 -3 25 1 32 9 15 18 15 18 50 -7z m-1241 -9 c22 -16 23
-20 8 -25 -27 -11 -50 -2 -59 23 -11 29 15 30 51 2z m613 -17 c-7 -2 -19 -2
-25 0 -7 3 -2 5 12 5 14 0 19 -2 13 -5z m-9295 -46 c9 -8 34 -17 54 -20 20 -3
46 -15 57 -26 12 -12 30 -21 40 -21 11 0 22 -9 26 -19 3 -10 21 -34 40 -52 19
-19 35 -39 35 -45 0 -6 9 -19 19 -28 11 -10 25 -32 32 -49 7 -18 21 -52 31
-75 17 -39 19 -64 16 -210 -2 -121 -6 -166 -15 -170 -7 -2 -13 -18 -13 -36 0
-19 -8 -38 -20 -49 -11 -9 -20 -25 -20 -35 0 -11 -15 -39 -33 -63 -18 -24 -36
-52 -40 -61 -3 -10 -16 -18 -27 -18 -11 0 -23 -7 -26 -15 -3 -8 -34 -28 -67
-44 -56 -27 -72 -30 -172 -32 -70 -1 -119 2 -135 10 -87 42 -138 81 -166 126
-10 17 -27 36 -36 43 -10 7 -18 20 -18 28 0 8 -4 14 -8 14 -13 0 -54 91 -64
140 -32 160 -32 191 0 337 12 54 52 153 62 153 5 0 12 9 15 20 3 11 12 26 18
32 7 7 20 25 30 41 10 15 24 27 32 27 8 0 18 6 22 13 11 18 98 67 120 67 10 1
32 9 50 18 39 21 137 20 161 -1z m2790 -104 c-4 -33 -27 -43 -35 -14 -7 27
-19 27 -26 1 -6 -22 -37 -28 -37 -7 0 21 14 35 40 40 56 10 61 8 58 -20z m797
17 c7 -11 -12 -50 -24 -50 -11 0 -22 40 -15 52 7 11 31 10 39 -2z m513 -26
c-4 -25 -32 -24 -36 0 -4 21 18 40 31 27 5 -5 7 -17 5 -27z m327 6 c0 -13 -6
-25 -12 -27 -9 -3 -13 6 -13 27 0 21 4 30 13 28 6 -3 12 -15 12 -28z m74 21
c16 -11 -2 -51 -24 -51 -21 0 -27 17 -15 40 12 22 18 24 39 11z m376 -1 c3 -5
1 -10 -4 -10 -6 0 -11 5 -11 10 0 6 2 10 4 10 3 0 8 -4 11 -10z m79 4 c21 -8
20 -40 -1 -48 -23 -9 -45 29 -26 47 8 8 8 8 27 1z m372 -2 c18 -11 -2 -52 -26
-52 -14 0 -20 7 -20 23 0 35 19 47 46 29z m490 -2 c8 0 14 -10 14 -25 0 -29
-15 -33 -29 -7 -8 14 -12 15 -22 5 -19 -19 -36 -16 -42 6 -7 27 3 34 37 27 16
-3 35 -6 42 -6z m474 -20 c0 -25 -4 -30 -25 -30 -20 0 -25 5 -25 23 0 28 7 37
32 37 13 0 18 -8 18 -30z m880 1 c0 -10 -9 -16 -22 -17 -13 0 -31 -4 -40 -8
-14 -6 -18 -3 -18 13 0 13 9 25 22 30 30 11 58 2 58 -18z m-4012 -3 c-5 -32
-28 -35 -28 -4 0 17 5 26 16 26 10 0 14 -7 12 -22z m45 15 c-7 -2 -19 -2 -25
0 -7 3 -2 5 12 5 14 0 19 -2 13 -5z m437 -18 c0 -15 -6 -25 -14 -25 -7 0 -16
11 -18 25 -4 19 -1 25 13 25 14 0 19 -7 19 -25z m398 3 c-2 -13 -10 -23 -18
-23 -8 0 -16 10 -18 23 -3 17 2 22 18 22 16 0 21 -5 18 -22z m1362 0 c0 -19
-2 -20 -10 -8 -13 19 -13 30 0 30 6 0 10 -10 10 -22z m1320 -9 c0 -20 -15 -26
-25 -9 -9 15 3 43 15 35 5 -3 10 -15 10 -26z m6280 -239 c13 -11 31 -20 40
-20 10 0 29 -9 43 -20 14 -11 29 -20 35 -20 9 0 97 -92 120 -126 6 -10 17 -30
23 -44 6 -14 17 -38 25 -55 41 -86 63 -254 46 -345 -13 -68 -32 -140 -42 -161
-65 -131 -129 -204 -228 -261 -55 -31 -61 -32 -177 -32 -113 -1 -124 1 -177
28 -32 15 -58 32 -58 37 0 5 -11 15 -25 21 -14 6 -28 21 -31 34 -3 12 -14 24
-25 27 -10 3 -19 13 -19 23 0 9 -16 32 -35 51 -22 21 -36 47 -41 71 -3 20 -13
42 -21 49 -10 8 -13 21 -10 34 3 13 2 57 -4 98 -12 95 -1 281 16 281 7 0 18
-7 26 -16 10 -12 10 -32 0 -102 -13 -97 -1 -229 25 -269 8 -12 14 -34 14 -47
0 -15 8 -30 21 -37 15 -8 20 -18 16 -36 -3 -18 1 -26 17 -33 12 -4 41 -29 64
-54 28 -30 55 -49 75 -53 18 -3 40 -13 51 -22 25 -22 188 -21 214 1 9 9 28 19
42 23 14 4 32 14 40 21 8 8 32 29 53 48 20 18 37 38 37 45 0 6 4 11 10 11 5 0
12 11 16 24 3 14 12 27 19 30 7 2 16 20 20 38 4 18 15 44 24 57 24 37 22 313
-3 339 -9 10 -16 28 -16 39 0 11 -9 32 -20 46 -11 14 -20 30 -20 36 0 6 -31
42 -70 79 -53 52 -79 71 -106 75 -20 3 -41 13 -48 21 -7 10 -37 18 -79 22 -62
6 -70 5 -92 -16 -14 -13 -32 -21 -43 -18 -24 7 -52 -8 -52 -27 0 -7 -13 -16
-29 -20 -16 -3 -32 -13 -35 -21 -3 -8 -12 -14 -21 -14 -9 0 -15 -9 -15 -25 0
-15 -6 -25 -14 -25 -18 0 -56 -72 -56 -105 0 -25 -14 -31 -38 -16 -17 10 -7
75 14 92 8 6 14 17 14 24 0 7 7 15 15 19 8 3 15 12 15 20 0 8 28 43 63 78 89
89 144 110 303 116 59 2 75 -1 94 -18z m-13748 -164 c18 -8 52 -20 76 -27 24
-7 47 -20 52 -29 5 -9 15 -57 23 -107 9 -50 29 -121 46 -161 17 -39 31 -75 31
-81 0 -6 11 -18 25 -27 13 -9 27 -25 30 -35 4 -11 18 -24 31 -29 13 -5 29 -21
34 -34 5 -14 22 -33 37 -42 15 -9 40 -25 54 -35 14 -9 46 -23 70 -30 24 -7 49
-16 55 -21 25 -18 109 -20 163 -4 30 9 67 16 82 16 15 0 50 16 78 35 28 19 57
35 65 35 7 0 29 6 47 14 41 17 67 9 101 -32 13 -16 34 -35 46 -41 13 -7 22
-21 22 -34 0 -25 -68 -101 -111 -122 -14 -8 -29 -21 -32 -29 -4 -9 -25 -19
-47 -22 -23 -4 -47 -12 -54 -19 -41 -42 -233 -83 -331 -71 -58 8 -172 45 -209
70 -14 9 -40 19 -56 23 -17 3 -35 14 -41 24 -5 10 -24 26 -42 35 -59 31 -211
214 -227 274 -6 21 -23 67 -40 102 -45 101 -83 261 -78 336 5 83 28 99 100 68z
m9684 -222 c9 -13 14 -31 10 -39 -8 -22 -44 -19 -58 5 -16 25 -30 25 -46 -1
-11 -17 -21 -20 -65 -17 -51 3 -52 4 -55 36 -4 42 12 48 117 44 73 -3 83 -6
97 -28z m3779 -4 c9 -14 41 -13 66 3 17 10 22 9 35 -7 28 -39 14 -44 -106 -36
-82 6 -84 7 -52 19 17 7 32 17 32 22 0 12 17 11 25 -1z m319 -10 c14 0 28 5
31 10 3 6 10 10 15 10 11 0 34 -40 27 -47 -3 -3 -52 -5 -109 -6 -74 -1 -103 3
-102 11 3 31 5 34 28 30 14 -3 30 -1 37 3 7 4 21 3 30 -2 10 -5 29 -9 43 -9z
m-1309 -45 c72 -20 150 -57 187 -87 31 -27 118 -153 118 -171 0 -7 7 -22 15
-34 23 -33 57 -225 52 -291 -5 -72 -38 -197 -63 -241 -11 -18 -26 -46 -34 -61
-19 -36 -106 -128 -150 -159 -34 -25 -60 -33 -174 -57 -67 -14 -71 -13 -142
11 -81 28 -156 74 -180 111 -9 13 -24 26 -35 29 -10 4 -19 15 -19 26 0 10 -5
19 -11 19 -5 0 -22 26 -36 57 -14 32 -32 65 -39 73 -7 8 -15 47 -19 85 -3 39
-8 95 -11 127 -4 37 -1 64 7 80 8 14 12 48 10 86 -2 54 0 67 18 83 12 12 21
32 21 49 0 17 5 30 10 30 6 0 14 8 17 17 6 15 15 26 58 74 8 9 15 21 15 27 0
7 4 12 9 12 4 0 26 14 47 30 22 17 48 37 59 45 10 8 31 15 45 15 14 0 41 9 60
19 40 22 77 21 165 -4z m-1701 -130 c18 -12 26 -26 26 -46 0 -35 -11 -36 -50
-8 -30 23 -60 20 -60 -6 0 -32 -21 -13 -32 29 -10 38 -13 42 -26 29 -17 -17
-38 -3 -29 20 7 18 136 5 171 -18z m2664 23 c7 -7 12 -39 12 -75 0 -53 -3 -64
-21 -74 -17 -9 -25 -8 -38 6 -15 15 -14 18 12 37 l27 20 -20 33 c-11 18 -20
40 -20 49 0 19 31 21 48 4z m272 -8 c14 -27 47 -25 71 3 l19 22 26 -29 c22
-25 25 -36 21 -70 -4 -25 -14 -48 -28 -59 -27 -21 -37 -14 -41 33 -4 46 -23
45 -51 -5 -25 -44 -46 -51 -62 -19 -10 21 -11 21 -45 3 -34 -18 -34 -18 -57 3
-28 26 -28 31 -1 86 20 41 22 43 35 27 7 -11 13 -27 13 -37 0 -29 18 -21 46
22 30 45 39 48 54 20z m-4628 -87 c31 -29 34 -43 16 -61 -8 -8 -20 -4 -48 18
l-37 29 -11 -24 c-15 -33 -30 -31 -46 5 -9 22 -15 27 -23 19 -13 -13 -33 -4
-33 16 0 9 17 13 61 14 34 0 64 3 67 6 11 11 27 4 54 -22z m-3200 -125 c-12
-12 -35 -1 -27 12 3 5 13 6 21 3 10 -4 12 -9 6 -15z m455 -4 c-3 -4 -14 -3
-24 0 -15 6 -15 8 -3 16 16 10 39 -4 27 -16z m3303 -154 c6 -41 15 -107 20
-146 5 -40 14 -84 20 -99 6 -15 13 -62 17 -104 3 -42 10 -84 14 -93 12 -22 30
-195 22 -214 -3 -8 -14 -14 -24 -14 -10 0 -28 -9 -39 -20 -11 -11 -28 -20 -38
-20 -18 0 -19 21 -25 399 -4 220 -4 415 0 433 l7 33 8 -40 c4 -22 12 -74 18
-115z m-116 -317 c-4 -216 -11 -393 -15 -393 -5 0 -18 9 -29 20 -11 11 -33 20
-49 20 -21 0 -30 6 -34 21 -7 25 3 131 13 144 5 6 13 55 20 110 6 55 16 111
22 125 6 14 15 59 19 100 4 41 12 102 18 135 6 33 13 83 17 110 6 45 7 48 16
25 6 -16 7 -172 2 -417z m566 417 c6 -11 17 -20 25 -20 8 0 19 9 25 20 15 28
78 27 108 0 21 -20 32 -80 14 -80 -4 0 -24 15 -45 33 l-36 34 -12 -29 c-13
-33 -16 -33 -40 -12 -16 14 -18 14 -29 -5 -18 -34 -28 -24 -32 29 -3 53 4 63
22 30z m-4636 -18 c2 -4 0 -14 -5 -22 -8 -13 -10 -13 -18 0 -10 15 -6 30 9 30
5 0 11 -4 14 -8z m9376 -37 c0 -24 0 -25 -92 -23 -106 1 -123 6 -82 23 20 8
35 9 48 3 12 -7 21 -7 25 -1 9 14 31 21 69 22 28 1 32 -2 32 -24z m151 14 c39
-9 57 -8 74 1 29 16 55 7 55 -19 0 -18 -8 -20 -92 -23 -107 -4 -128 -1 -128
18 0 7 8 18 18 23 21 13 12 13 73 0z m-4213 -141 c17 -121 31 -197 47 -248 8
-25 17 -70 20 -100 4 -30 12 -60 17 -67 5 -7 11 -34 13 -60 1 -26 4 -52 5 -58
8 -34 -1 -55 -24 -55 -34 0 -56 -10 -56 -25 0 -12 -21 -25 -40 -25 -5 0 -9
124 -9 276 -1 151 -3 280 -7 285 -7 13 6 159 15 159 4 0 12 -37 19 -82z
m-1822 -80 c-4 -84 -10 -198 -13 -253 -3 -55 -6 -144 -7 -197 0 -53 -5 -100
-9 -104 -4 -5 -19 4 -33 19 -16 17 -35 27 -54 27 -35 0 -43 27 -23 80 7 19 17
62 22 95 6 33 17 85 25 115 9 30 16 69 16 87 0 17 4 34 9 38 5 3 13 31 16 63
4 31 13 70 21 86 7 15 16 43 20 62 13 70 16 29 10 -118z m102 5 c5 -10 13 -40
17 -68 4 -27 11 -57 15 -66 5 -8 13 -44 19 -80 11 -68 25 -145 42 -220 13 -58
5 -79 -31 -79 -19 0 -31 -6 -35 -19 -4 -14 -53 -36 -62 -28 -2 3 -5 606 -3
662 l2 50 13 -67 c7 -36 18 -75 23 -85z m1610 -220 c-3 -358 -5 -370 -49 -319
-14 17 -33 26 -51 26 -27 0 -28 2 -28 51 0 28 5 60 12 72 6 12 17 58 24 102
15 98 40 219 52 261 5 17 13 64 17 104 5 54 10 69 17 57 5 -10 8 -157 6 -354z
m-5208 327 c0 -5 -4 -10 -10 -10 -5 0 -10 5 -10 10 0 6 5 10 10 10 6 0 10 -4
10 -10z m9220 -52 c15 -16 20 -35 20 -73 0 -53 -12 -75 -41 -75 -29 0 -34 22
-11 41 27 21 27 36 2 74 -14 21 -16 33 -8 42 14 17 14 17 38 -9z m200 -41 c0
-5 -9 -11 -20 -14 -23 -6 -24 -13 -9 -47 9 -20 9 -29 -1 -41 -15 -19 -21 -19
-46 -1 -19 14 -19 15 2 38 26 29 37 68 19 68 -22 0 -28 33 -8 48 16 11 21 9
40 -15 13 -15 23 -32 23 -36z m90 27 c12 -32 60 -34 60 -4 0 28 28 37 48 16
20 -20 20 -125 0 -138 -23 -14 -50 -8 -55 12 -7 27 -49 27 -56 -1 -4 -15 -12
-20 -29 -17 -29 4 -30 30 0 43 27 12 28 20 2 52 -23 29 -26 59 -7 66 17 6 27
-1 37 -29z m-7783 -296 c-3 -7 -5 -2 -5 12 0 14 2 19 5 13 2 -7 2 -19 0 -25z"/>
<path d="M14535 11945 c-3 -8 -7 -21 -9 -29 -3 -9 10 -19 40 -29 40 -13 45
-13 53 2 10 16 -3 50 -23 63 -19 13 -56 9 -61 -7z"/>
<path d="M14475 11733 c-33 -50 -32 -70 4 -78 16 -3 32 -13 35 -21 7 -19 70
-18 86 1 7 8 20 15 30 15 28 0 43 25 35 60 -9 43 -40 60 -107 60 -55 0 -58 -2
-83 -37z"/>
<path d="M13956 11928 c-6 -26 9 -47 24 -32 10 10 2 54 -10 54 -4 0 -10 -10
-14 -22z"/>
<path d="M1799 11847 c-32 -43 -38 -67 -23 -97 31 -63 82 -69 106 -13 7 15 17
31 23 35 6 5 6 8 -1 8 -6 0 -14 13 -17 29 -3 16 -19 38 -35 50 l-29 20 -24
-32z"/>
<path d="M2257 11854 c-23 -20 -27 -31 -27 -78 0 -44 4 -57 19 -66 27 -14 54
-13 75 3 22 16 27 118 6 125 -7 3 -20 12 -30 22 -16 16 -18 15 -43 -6z"/>
<path d="M13172 9993 c-35 -39 -45 -71 -28 -88 12 -12 16 -10 26 18 7 18 17
42 22 54 17 35 5 44 -20 16z"/>
<path d="M13216 9875 c-3 -8 -1 -15 4 -15 6 0 10 7 10 15 0 8 -2 15 -4 15 -2
0 -6 -7 -10 -15z"/>
<path d="M13401 9854 c0 -11 3 -14 6 -6 3 7 2 16 -1 19 -3 4 -6 -2 -5 -13z"/>
<path d="M13071 9836 c-7 -8 -9 -25 -6 -38 4 -16 1 -29 -9 -37 -9 -8 -16 -27
-16 -43 0 -34 39 -110 52 -102 14 9 9 73 -7 98 -14 21 -14 24 0 36 16 13 21
85 6 94 -5 3 -14 0 -20 -8z"/>
<path d="M13046 9574 c-9 -23 -7 -62 2 -68 5 -3 14 10 19 29 8 26 8 37 -2 45
-9 8 -14 6 -19 -6z"/>
<path d="M13150 9553 c0 -21 2 -24 15 -13 8 7 15 16 15 20 0 4 -7 10 -15 14
-11 4 -15 -2 -15 -21z"/>
<path d="M13325 9470 c3 -5 8 -10 11 -10 2 0 4 5 4 10 0 6 -5 10 -11 10 -5 0
-7 -4 -4 -10z"/>
<path d="M13105 9440 c-3 -5 1 -10 9 -10 9 0 16 5 16 10 0 6 -4 10 -9 10 -6 0
-13 -4 -16 -10z"/>
<path d="M13046 9392 c-6 -10 -2 -39 7 -48 4 -4 7 7 7 24 0 32 -4 39 -14 24z"/>
<path d="M13040 9260 c0 -13 5 -20 13 -17 6 2 12 10 12 17 0 7 -6 15 -12 18
-8 2 -13 -5 -13 -18z"/>
<path d="M13096 9221 c-11 -17 18 -30 37 -16 16 11 16 13 1 19 -22 8 -32 8
-38 -3z"/>
<path d="M13046 9183 c-9 -9 -7 -33 3 -33 12 0 22 28 12 34 -5 3 -11 3 -15 -1z"/>
<path d="M14486 10013 c-11 -11 -6 -23 9 -23 8 0 15 4 15 9 0 13 -16 22 -24
14z"/>
<path d="M14322 9940 c0 -14 2 -19 5 -12 2 6 2 18 0 25 -3 6 -5 1 -5 -13z"/>
<path d="M14385 9928 c-4 -9 -2 -25 3 -35 10 -17 11 -17 17 -1 4 9 2 25 -3 35
-10 17 -11 17 -17 1z"/>
<path d="M14276 9884 c-8 -22 -7 -37 4 -54 9 -13 11 -13 20 0 15 23 12 70 -4
70 -8 0 -17 -7 -20 -16z"/>
<path d="M14600 9854 c0 -8 5 -12 10 -9 6 3 10 10 10 16 0 5 -4 9 -10 9 -5 0
-10 -7 -10 -16z"/>
<path d="M14420 9825 c0 -8 5 -15 10 -15 6 0 10 7 10 15 0 8 -4 15 -10 15 -5
0 -10 -7 -10 -15z"/>
<path d="M14600 9656 c0 -9 5 -16 10 -16 6 0 10 4 10 9 0 6 -4 13 -10 16 -5 3
-10 -1 -10 -9z"/>
<path d="M14253 9565 c0 -44 2 -61 4 -37 2 23 2 59 0 80 -2 20 -4 1 -4 -43z"/>
<path d="M14427 9453 c-15 -14 -5 -23 26 -23 30 1 31 1 13 15 -22 17 -29 18
-39 8z"/>
<path d="M14251 9370 c-5 -49 -6 -212 0 -215 3 -2 22 -2 42 2 31 5 37 9 37 31
0 25 -1 25 -14 6 -12 -15 -18 -17 -33 -8 -10 6 -19 21 -21 33 -3 16 2 21 20
21 13 0 29 -5 36 -12 9 -9 12 -5 12 20 0 24 -4 32 -18 32 -27 0 -50 30 -55 70
-2 19 -5 28 -6 20z"/>
<path d="M15800 9885 c-7 -8 -14 -59 -17 -119 -5 -88 -3 -109 11 -131 32 -49
63 -24 66 55 5 116 0 179 -16 194 -19 20 -28 20 -44 1z"/>
<path d="M9960 9650 c0 -13 7 -20 18 -20 24 0 32 8 25 26 -8 22 -43 17 -43 -6z"/>
<path d="M9927 9344 c-4 -4 -7 -20 -7 -36 0 -35 23 -34 28 1 4 25 -10 46 -21
35z"/>
<path d="M10025 9080 c3 -5 10 -10 16 -10 5 0 9 5 9 10 0 6 -7 10 -16 10 -8 0
-12 -4 -9 -10z"/>
<path d="M10110 9000 c0 -5 9 -10 20 -10 11 0 20 5 20 10 0 6 -9 10 -20 10
-11 0 -20 -4 -20 -10z"/>
<path d="M11382 9430 c0 -19 2 -27 5 -17 2 9 2 25 0 35 -3 9 -5 1 -5 -18z"/>
<path d="M11382 9285 c0 -16 2 -22 5 -12 2 9 2 23 0 30 -3 6 -5 -1 -5 -18z"/>
<path d="M11415 9181 c-3 -5 6 -22 20 -37 l25 -27 0 30 c0 19 -6 33 -16 37
-20 8 -22 8 -29 -3z"/>
<path d="M11572 9388 c7 -19 38 -22 38 -4 0 10 -9 16 -21 16 -12 0 -19 -5 -17
-12z"/>
<path d="M11598 6635 c2 -14 6 -25 8 -25 2 0 4 11 4 25 0 14 -4 25 -9 25 -4 0
-6 -11 -3 -25z"/>
<path d="M11591 6537 c-1 -30 3 -46 9 -42 12 7 12 42 0 70 -6 15 -9 8 -9 -28z"/>
<path d="M11653 6534 c-9 -23 11 -38 26 -20 13 16 7 36 -10 36 -5 0 -12 -7
-16 -16z"/>
<path d="M16125 6530 c-3 -5 -1 -10 4 -10 6 0 11 5 11 10 0 6 -2 10 -4 10 -3
0 -8 -4 -11 -10z"/>
<path d="M16124 6446 c-8 -22 3 -33 18 -18 9 9 9 15 0 24 -9 9 -13 7 -18 -6z"/>
<path d="M16261 6547 c-13 -17 -5 -47 14 -47 7 0 18 6 24 13 8 11 6 18 -8 31
-15 14 -20 14 -30 3z"/>
<path d="M16416 6528 c-19 -26 -20 -35 -6 -51 6 -7 17 -21 25 -32 19 -27 25
-17 28 46 2 43 -1 54 -15 57 -9 2 -23 -7 -32 -20z"/>
<path d="M4600 5450 l-25 -8 28 -1 c15 -1 27 4 27 9 0 6 -1 10 -2 9 -2 -1 -14
-5 -28 -9z"/>
<path d="M4200 4044 c0 -13 113 -180 143 -211 l31 -33 290 0 c160 0 302 3 314
7 21 5 23 10 18 36 -12 58 -80 109 -196 146 -54 17 -106 22 -310 29 -155 6
-254 13 -268 21 -12 6 -22 9 -22 5z"/>
<path d="M4635 3680 c40 -10 183 -10 215 0 15 5 -29 8 -110 8 -82 0 -123 -3
-105 -8z"/>
<path d="M4088 3403 c7 -3 16 -2 19 1 4 3 -2 6 -13 5 -11 0 -14 -3 -6 -6z"/>
<path d="M7265 5450 c-4 -6 3 -10 14 -10 25 0 27 6 6 13 -8 4 -17 2 -20 -3z"/>
<path d="M7320 5446 c0 -2 7 -6 15 -10 8 -3 15 -1 15 4 0 6 -7 10 -15 10 -8 0
-15 -2 -15 -4z"/>
<path d="M7728 4605 c-15 -15 -51 -90 -86 -178 -71 -180 -74 -191 -57 -214 12
-16 32 -18 213 -18 219 0 237 4 225 54 -9 39 -89 196 -140 276 -70 109 -107
128 -155 80z"/>
<path d="M7635 3811 l79 -6 -3 -55 c-1 -30 -8 -58 -14 -63 -7 -4 -78 -7 -159
-5 l-148 3 0 -26 c0 -32 10 -41 79 -65 64 -23 99 -53 107 -94 l7 -30 208 0
209 0 6 28 c11 45 31 65 97 97 78 38 96 66 79 124 -10 32 -21 45 -51 61 -52
26 -211 41 -416 38 -124 -1 -142 -3 -80 -7z"/>
<path d="M6817 3764 c-16 -16 -5 -24 36 -24 23 0 49 5 57 10 12 8 11 10 -6 10
-12 0 -34 3 -50 6 -16 3 -32 2 -37 -2z"/>
<path d="M12470 5103 c-8 -3 -23 -12 -32 -21 -16 -14 -18 -41 -18 -302 0 -345
-4 -332 109 -338 128 -7 208 33 256 129 50 98 52 267 5 377 -29 67 -96 127
-163 147 -50 15 -128 19 -157 8z"/>
<path d="M14380 3933 c0 -52 -4 -103 -10 -113 -7 -14 -27 -20 -81 -25 -67 -7
-73 -6 -89 15 -13 18 -20 20 -41 11 -13 -5 -37 -13 -54 -16 l-30 -7 25 -19
c39 -32 139 -77 209 -95 99 -25 240 -16 308 19 77 40 102 101 68 167 -28 54
-103 97 -239 138 l-66 20 0 -95z"/>
<path d="M14111 3901 c-1 -24 2 -32 9 -25 7 7 7 19 1 35 -9 23 -10 22 -10 -10z"/>
<path d="M14250 3849 c0 -16 4 -28 9 -25 8 5 3 56 -5 56 -2 0 -4 -14 -4 -31z"/>
<path d="M10313 5100 c-12 -5 -26 -18 -32 -29 -14 -25 -15 -549 -2 -584 6 -14
23 -29 42 -36 42 -14 131 -14 180 1 50 14 114 69 139 118 43 84 49 232 14 350
-22 74 -100 152 -173 174 -59 17 -133 20 -168 6z"/>
<path d="M2428 2103 c6 -2 18 -2 25 0 6 3 1 5 -13 5 -14 0 -19 -2 -12 -5z"/>
<path d="M1794 2765 c-10 -8 -39 -15 -64 -15 -29 0 -58 -8 -80 -22 -19 -13
-44 -27 -56 -33 -29 -14 -123 -121 -140 -159 -8 -17 -18 -38 -23 -46 -14 -23
-51 -186 -51 -223 0 -18 7 -57 15 -87 8 -30 15 -69 15 -86 0 -18 8 -38 20 -49
11 -10 20 -24 20 -32 0 -35 143 -203 172 -203 6 0 19 -7 28 -15 41 -37 255
-40 289 -5 9 10 31 25 50 35 36 18 101 78 101 93 0 5 7 15 16 22 8 8 22 27 29
44 8 17 19 38 24 46 37 59 44 96 44 230 0 117 -2 143 -20 181 -11 24 -23 51
-27 59 -3 8 -14 27 -24 41 -9 15 -28 45 -41 68 -14 22 -28 41 -31 41 -7 0 -32
20 -75 58 -11 10 -40 24 -65 31 -25 7 -54 19 -65 27 -25 18 -36 18 -61 -1z
m-136 -203 c14 -19 16 -86 2 -111 -6 -13 -17 -17 -35 -14 -29 6 -33 18 -9 27
16 6 16 38 -2 104 -5 19 -3 21 12 16 11 -4 25 -14 32 -22z m327 18 c9 -14 -16
-121 -27 -114 -9 6 -11 108 -1 117 9 10 21 9 28 -3z m-85 -14 c14 -18 10 -58
-7 -63 -11 -4 -43 45 -43 67 0 15 36 12 50 -4z m-85 -16 c3 -11 10 -20 15 -20
5 0 10 -10 12 -22 2 -16 11 -24 30 -26 31 -4 44 -27 20 -38 -9 -4 -39 -8 -65
-8 -40 -1 -52 4 -74 26 l-26 27 27 41 c29 44 51 51 61 20z m-34 -256 c15 -18
37 -18 55 1 16 16 75 19 108 6 11 -4 37 -4 58 -1 30 6 44 3 60 -10 l22 -17
-21 -11 c-11 -6 -66 -13 -122 -15 -81 -4 -104 -2 -108 9 -6 16 -44 19 -59 4
-6 -6 -59 -11 -118 -12 -86 0 -111 3 -124 15 -16 17 -15 18 48 39 8 3 54 5
102 6 63 0 90 -4 99 -14z m69 -149 c0 -37 -75 -48 -105 -15 -22 24 -22 23 35
42 40 13 46 13 58 -1 6 -8 12 -20 12 -26z m-217 25 c54 0 69 -3 74 -17 4 -10
-2 -23 -17 -35 -19 -16 -33 -18 -76 -13 -33 5 -54 3 -58 -4 -11 -17 -66 16
-66 39 0 23 28 42 55 35 11 -3 51 -5 88 -5z m455 -18 c5 -31 -41 -58 -73 -44
-13 6 -45 9 -72 5 -38 -4 -52 -2 -62 11 -26 31 3 45 97 48 110 5 106 5 110
-20z"/>
<path d="M13475 1935 c-16 -8 -47 -14 -67 -15 -23 0 -44 -7 -55 -19 -10 -10
-29 -22 -41 -26 -26 -8 -112 -93 -112 -111 0 -6 -9 -19 -20 -29 -11 -10 -20
-30 -20 -45 0 -19 -7 -30 -26 -39 -20 -9 -24 -16 -18 -29 9 -19 9 -49 -3 -173
-7 -66 -6 -89 4 -98 7 -6 13 -27 13 -46 0 -21 6 -37 16 -43 12 -7 15 -19 12
-41 -3 -23 0 -32 14 -37 10 -3 18 -9 18 -14 0 -5 10 -20 23 -34 12 -13 38 -42
57 -65 19 -22 41 -41 48 -41 7 0 26 -10 43 -22 27 -20 42 -23 137 -23 99 0
111 2 156 28 27 15 57 34 65 42 65 59 101 100 101 116 0 7 6 20 13 28 34 41
50 107 54 234 5 114 3 135 -17 195 -50 150 -156 257 -300 304 -64 21 -56 20
-95 3z m263 -362 c-6 -8 -18 -11 -27 -7 -9 4 -32 6 -51 5 -118 -8 -125 -7
-125 13 0 16 8 20 50 22 27 1 61 -2 74 -7 17 -7 30 -5 45 5 19 13 22 13 33 -1
10 -12 10 -20 1 -30z m-279 23 c18 -22 -2 -28 -86 -27 -82 1 -127 15 -83 25
23 5 70 10 131 14 15 1 32 -4 38 -12z m-130 -159 c13 -15 19 -30 15 -40 -7
-20 -8 -20 -51 -5 -30 11 -45 28 -24 28 5 0 11 9 14 20 7 26 19 25 46 -3z
m161 6 c0 -64 -14 -123 -28 -123 -13 0 -13 3 -4 12 15 15 15 43 -2 91 -13 36
-13 37 10 37 16 0 24 -6 24 -17z m110 -30 c0 -12 11 -35 25 -50 20 -23 26 -25
34 -14 6 9 6 22 0 32 -12 24 -11 30 12 58 19 23 20 23 39 6 29 -27 29 -130 -1
-145 -15 -9 -24 -8 -35 0 -13 12 -53 10 -85 -4 -19 -8 -46 28 -55 72 -4 20 2
35 23 59 29 33 43 29 43 -14z m-276 -78 c8 -22 -4 -45 -24 -45 -10 0 -23 7
-30 15 -15 18 2 45 30 45 10 0 20 -7 24 -15z"/>
<path d="M14807 1824 c-14 -15 -6 -34 14 -34 14 0 19 5 17 17 -3 18 -20 27
-31 17z"/>
<path d="M10781 1064 c0 -11 3 -14 6 -6 3 7 2 16 -1 19 -3 4 -6 -2 -5 -13z"/>
<path d="M10583 903 c-18 -6 -16 -23 1 -23 17 0 30 16 19 23 -5 2 -14 2 -20 0z"/>
<path d="M10001 964 c0 -11 3 -14 6 -6 3 7 2 16 -1 19 -3 4 -6 -2 -5 -13z"/>
<path d="M10002 895 c0 -16 2 -22 5 -12 2 9 2 23 0 30 -3 6 -5 -1 -5 -18z"/>
<path d="M16150 1335 c0 -14 6 -25 13 -25 21 0 27 11 16 31 -14 27 -29 23 -29
-6z"/>
</g>
</svg>
