<?xml version="1.0" standalone="no"?>
<!DOCTYPE svg PUBLIC "-//W3C//DTD SVG 20010904//EN"
 "http://www.w3.org/TR/2001/REC-SVG-20010904/DTD/svg10.dtd">
<svg version="1.0" xmlns="http://www.w3.org/2000/svg"
 width="200.000000pt" height="150.000000pt" viewBox="0 0 200.000000 150.000000"
 preserveAspectRatio="xMidYMid meet">

<g transform="translate(0.000000,150.000000) scale(0.100000,-0.100000)"
fill="#000000" stroke="none">
<path d="M0 1455 c0 -33 4 -45 14 -45 8 0 18 4 21 10 7 11 47 30 118 55 26 10
47 19 47 21 0 2 -45 4 -100 4 l-100 0 0 -45z"/>
<path d="M1950 1493 c1 -5 7 -19 15 -33 18 -32 18 -40 0 -40 -20 0 -19 -36 1
-44 30 -12 34 -5 34 59 0 63 -1 65 -25 65 -14 0 -25 -3 -25 -7z"/>
<path d="M1565 1429 c-4 -6 3 -21 15 -34 l22 -24 -21 -27 c-34 -43 -6 -62 35
-23 l22 21 21 -21 c24 -24 51 -28 51 -6 0 8 -4 15 -10 15 -5 0 -14 9 -21 21
-9 17 -7 25 10 43 12 12 21 28 21 34 0 19 -35 14 -55 -8 l-18 -20 -22 20 c-24
22 -40 25 -50 9z"/>
<path d="M1765 1430 c-3 -5 3 -20 14 -32 26 -27 26 -30 1 -53 -24 -22 -25 -34
-4 -42 8 -3 25 4 38 16 l23 21 18 -20 c10 -11 24 -20 31 -20 22 0 22 24 1 48
l-20 22 21 23 c12 13 22 29 22 35 0 19 -32 14 -55 -8 -21 -20 -21 -20 -43 0
-23 22 -38 25 -47 10z"/>
<path d="M1045 1410 c-78 -9 -152 -33 -245 -81 -73 -38 -77 -39 -151 -33 -155
13 -304 -61 -367 -181 -32 -62 -37 -170 -10 -221 48 -88 123 -120 168 -72 l21
23 -7 -68 c-4 -37 -4 -67 0 -67 4 0 28 14 53 31 30 21 48 28 55 21 7 -7 -8
-22 -46 -48 -49 -32 -56 -41 -56 -69 0 -18 7 -52 15 -75 9 -27 12 -47 6 -54
-5 -6 -12 -28 -16 -48 -6 -31 -3 -41 19 -62 39 -40 98 -36 140 7 35 38 89 77
105 77 26 0 6 -21 -74 -75 l-84 -58 36 -46 c20 -26 53 -60 74 -76 30 -24 35
-33 27 -48 -9 -18 -11 -18 -32 2 -41 39 -69 20 -35 -23 20 -25 20 -28 5 -45
-32 -36 -10 -57 26 -24 17 15 20 15 48 -6 27 -19 31 -20 36 -6 4 9 -2 26 -15
39 -20 21 -20 24 -5 37 14 11 25 9 78 -19 119 -61 266 -92 319 -65 22 11 27
11 27 0 0 -10 12 -12 47 -7 l48 5 7 49 c7 52 26 75 43 52 6 -7 20 -18 33 -25
12 -6 22 -18 22 -26 0 -20 13 -19 59 5 41 21 45 29 57 124 7 63 26 89 95 130
l32 19 -6 -24 c-10 -43 -19 -139 -14 -139 4 0 29 27 56 60 42 50 51 68 56 115
7 55 19 76 55 95 22 12 53 121 48 170 -3 32 -6 35 -38 38 -22 1 -47 -5 -67
-17 -32 -20 -38 -34 -73 -168 -9 -36 -15 -43 -35 -43 -29 0 -31 13 -9 66 l16
39 -39 -35 c-21 -19 -32 -28 -25 -20 20 23 15 113 -8 140 -23 27 -23 26 -10
49 9 19 -5 82 -25 110 -47 67 -175 169 -195 156 -13 -8 -21 44 -10 64 5 11 66
59 135 107 69 48 128 91 131 95 5 9 -61 56 -121 87 -101 51 -259 77 -380 62z
m320 -90 c5 -8 -134 -110 -150 -110 -20 0 4 27 63 70 71 53 77 56 87 40z
m-203 -277 c22 -26 26 -45 17 -70 -10 -27 -22 -29 -43 -7 -23 22 -30 62 -16
79 16 19 24 19 42 -2z m198 -263 c8 0 22 -9 30 -20 8 -11 20 -20 28 -20 17 0
82 -66 82 -83 0 -20 -16 -31 -87 -60 l-63 -26 0 52 c0 46 -10 104 -26 162 -5
16 -4 18 7 8 7 -7 20 -13 29 -13z m-240 -19 c0 -48 -104 -111 -185 -111 -76 0
-85 14 -20 29 34 8 79 29 118 56 70 48 87 53 87 26z m-520 -156 c0 -2 -10 -9
-22 -15 -22 -11 -22 -10 -4 4 21 17 26 19 26 11z m646 -200 c18 -14 17 -15
-11 -9 -16 4 -39 11 -50 15 -17 6 -15 8 11 8 16 1 39 -6 50 -14z"/>
<path d="M1134 1026 c-6 -16 12 -56 24 -56 5 0 6 16 4 35 -4 36 -18 46 -28 21z"/>
<path d="M1986 1313 c-4 -9 -2 -21 4 -27 7 -7 10 -2 10 17 0 31 -5 34 -14 10z"/>
<path d="M1447 1157 c-152 -108 -148 -102 -103 -123 20 -10 36 -21 36 -25 0
-4 12 -15 28 -24 15 -10 24 -14 20 -10 -4 4 41 41 100 82 146 102 139 91 96
141 -19 23 -41 42 -47 42 -7 -1 -65 -38 -130 -83z"/>
<path d="M1567 1053 l-108 -75 48 -51 c26 -29 51 -51 55 -49 6 1 148 100 186
128 4 3 -58 113 -66 118 -4 2 -56 -30 -115 -71z"/>
<path d="M1670 919 c-47 -33 -89 -64 -93 -68 -6 -6 3 -41 19 -69 0 -1 22 10
48 24 33 19 63 27 102 28 42 1 53 4 50 16 -2 8 -10 38 -16 65 -7 28 -16 53
-19 57 -3 3 -44 -21 -91 -53z"/>
<path d="M28 471 c-26 -54 -28 -70 -28 -175 0 -64 2 -116 5 -116 6 0 174 120
179 129 7 11 -64 142 -99 185 l-30 36 -27 -59z"/>
<path d="M97 213 l-97 -68 0 -72 c0 -45 4 -73 11 -73 15 0 210 141 216 155 4
11 -24 125 -31 125 -1 0 -45 -30 -99 -67z"/>
<path d="M240 196 c0 -7 10 -20 22 -28 22 -15 22 -16 4 -42 -11 -17 -23 -25
-33 -22 -12 5 -163 -88 -163 -100 0 -2 38 -4 85 -4 l85 0 0 45 c0 36 3 43 15
38 9 -3 25 3 35 12 19 18 21 17 44 -4 24 -23 46 -21 46 3 0 7 -9 21 -20 31
l-20 18 20 22 c40 43 15 63 -28 23 l-24 -23 -15 23 c-17 24 -53 30 -53 8z"/>
<path d="M430 198 c0 -6 10 -22 22 -35 20 -21 20 -24 5 -41 -33 -37 -12 -58
25 -25 17 15 20 15 42 -6 24 -23 46 -21 46 3 0 7 -9 21 -20 31 l-20 18 20 22
c11 12 20 27 20 33 0 17 -25 15 -40 -3 -7 -8 -18 -15 -25 -15 -7 0 -18 7 -25
15 -15 18 -50 20 -50 3z"/>
</g>
</svg>
